<svg xmlns="http://www.w3.org/2000/svg" viewBox="0 0 140 5">
    <defs>
        <style>
            .cls-1{fill:#42487d}
        </style>
    </defs>
    <path id="line" d="M-304.587-1130.973a2.22 2.22 0 0 1-2.22-2.22 2.22 2.22 0 0 1 2.22-2.22h7.03a2.22 2.22 0 0 1 2.22 2.22 2.221 2.221 0 0 1-2.22 2.22zm-8.51-2.22a2.22 2.22 0 0 1 2.22-2.22 2.22 2.22 0 0 1 2.219 2.22 2.22 2.22 0 0 1-2.219 2.22 2.22 2.22 0 0 1-2.223-2.221zm-6.29 0a2.22 2.22 0 0 1 2.22-2.22 2.22 2.22 0 0 1 2.22 2.22 2.221 2.221 0 0 1-2.22 2.22 2.22 2.22 0 0 1-2.221-2.221zm-6.29 0a2.22 2.22 0 0 1 2.22-2.22 2.22 2.22 0 0 1 2.22 2.22 2.221 2.221 0 0 1-2.22 2.22 2.221 2.221 0 0 1-2.221-2.221zm-106.561 2.22a2.22 2.22 0 0 1-2.219-2.22 2.22 2.22 0 0 1 2.219-2.22h98.421a2.22 2.22 0 0 1 2.219 2.22 2.22 2.22 0 0 1-2.219 2.22z" class="cls-1" transform="translate(434.458 1135.414)"/>
</svg>
