<svg width="488" height="342" viewBox="0 0 488 342" fill="none" xmlns="http://www.w3.org/2000/svg">
<path d="M476.022 207.447V245.76C476.025 248.864 475.416 251.937 474.229 254.805C473.043 257.673 471.303 260.279 469.109 262.474C466.915 264.668 464.309 266.409 461.441 267.596C458.574 268.783 455.5 269.393 452.397 269.39C449.909 269.389 447.446 269.878 445.148 270.829C442.85 271.78 440.761 273.175 439.003 274.934C437.244 276.693 435.849 278.781 434.898 281.079C433.946 283.378 433.458 285.841 433.459 288.328V291.228C433.459 296.252 431.463 301.07 427.911 304.623C424.358 308.175 419.54 310.171 414.516 310.171H60.4702C55.9805 310.172 51.5772 308.938 47.7417 306.604C43.9063 304.271 40.7866 300.927 38.7238 296.939C36.6611 292.952 35.7349 288.473 36.0464 283.994C36.3579 279.516 37.8952 275.209 40.4902 271.545C41.2945 270.405 42.198 269.339 43.1902 268.359C45.4582 266.089 48.1522 264.288 51.1175 263.062C54.0828 261.835 57.2611 261.205 60.4702 261.209H79.84C88.3506 261.21 96.5716 258.118 102.973 252.51C109.374 246.901 113.519 239.158 114.638 230.721C114.778 229.673 114.87 228.611 114.913 227.535C114.913 227.065 114.913 226.59 114.913 226.115C114.917 221.504 114.012 216.938 112.25 212.678C110.487 208.417 107.902 204.546 104.642 201.286C101.382 198.026 97.5107 195.44 93.2502 193.678C88.9898 191.916 84.4236 191.011 79.813 191.015H72.2152C68.7537 191.016 65.3025 190.639 61.9228 189.892C52.3205 187.743 43.6255 182.658 37.0452 175.342C30.4649 168.026 26.3258 158.843 25.2028 149.068C25.0786 148.015 24.9922 146.956 24.9436 145.882C24.9112 145.162 24.895 144.427 24.895 143.678C24.8936 137.461 26.1171 131.304 28.4958 125.56C30.8744 119.815 34.3615 114.596 38.7579 110.2C43.1543 105.803 48.3738 102.316 54.1182 99.9374C59.8626 97.5587 66.0194 96.3352 72.2368 96.3366H72.9388C76.4372 96.335 79.8867 95.5138 83.0105 93.9388C86.1344 92.3638 88.8458 90.0788 90.9274 87.267C93.0089 84.4552 94.4027 81.1948 94.9971 77.7472C95.5914 74.2996 95.3697 70.7607 94.3498 67.4142C94.0186 66.321 93.6015 65.2556 93.1024 64.2282C91.2726 60.4352 88.4098 57.2353 84.843 54.9963C81.2762 52.7572 77.1501 51.5699 72.9388 51.5706H64.3366C61.2632 51.5671 58.2206 50.9582 55.3825 49.7788C52.5444 48.5993 49.9664 46.8725 47.7957 44.6968C45.6249 42.521 43.904 39.939 42.7311 37.0982C41.5583 34.2574 40.9564 31.2134 40.96 28.14C40.96 27.6 40.96 27.06 41.014 26.5632C41.083 25.4924 41.2274 24.4277 41.446 23.3772C42.5438 18.1105 45.4214 13.3824 49.595 9.98761C53.7686 6.59287 58.9837 4.73855 64.3636 4.73639H223.545C228.516 4.73717 233.288 6.69203 236.83 10.1793C240.373 13.6665 242.403 18.4067 242.483 23.3772V23.6796V31.461C242.481 33.949 242.97 36.413 243.922 38.7119C244.873 41.0108 246.268 43.0997 248.028 44.859C249.787 46.6183 251.876 48.0136 254.175 48.9651C256.474 49.9166 258.938 50.4056 261.426 50.4042C266.111 50.4032 270.63 52.1388 274.109 55.2755C277.589 58.4122 279.783 62.7274 280.266 67.3872C280.332 68.0385 280.364 68.6928 280.364 69.3474V77.3718C280.365 82.3949 282.361 87.2118 285.914 90.7632C289.466 94.3145 294.284 96.3096 299.307 96.3096H325.594C336.536 96.2903 347.268 99.3094 356.595 105.031C358.209 106.013 359.771 107.077 361.277 108.217C363.519 109.897 365.638 111.736 367.617 113.719C376.364 122.44 382.164 133.678 384.206 145.86C384.389 146.94 384.535 147.971 384.654 149.046C384.905 151.271 385.032 153.508 385.032 155.747C385.032 158.234 385.522 160.697 386.473 162.995C387.425 165.292 388.82 167.38 390.579 169.138C392.337 170.897 394.425 172.292 396.722 173.244C399.02 174.195 401.483 174.685 403.97 174.685H443.26C447.56 174.684 451.818 175.531 455.791 177.176C459.764 178.822 463.374 181.234 466.414 184.275C469.455 187.316 471.866 190.926 473.511 194.899C475.156 198.872 476.002 203.131 476 207.431L476.022 207.447Z" fill="#F3F4FE"/>
<path d="M479.861 305.414H449.373C446.748 305.414 444.621 307.541 444.621 310.166V310.171C444.621 312.796 446.748 314.923 449.373 314.923H479.861C482.486 314.923 484.613 312.796 484.613 310.171V310.166C484.613 307.541 482.486 305.414 479.861 305.414Z" fill="#D2D6FA"/>
<path d="M436.002 305.414H8.13881C5.51435 305.414 3.38681 307.541 3.38681 310.166V310.171C3.38681 312.796 5.51435 314.923 8.13881 314.923H436.002C438.627 314.923 440.754 312.796 440.754 310.171V310.166C440.754 307.541 438.627 305.414 436.002 305.414Z" fill="#D2D6FA"/>
<path d="M242.488 23.7012V26.5848H40.987C41.056 25.514 41.2004 24.4493 41.419 23.3988H242.483C242.488 23.5014 242.488 23.5986 242.488 23.7012Z" fill="#EDEEFE"/>
<path d="M280.272 67.4088H94.3282C93.9971 66.3156 93.58 65.2503 93.0808 64.2228H279.64C279.942 65.2647 280.153 66.3306 280.272 67.4088Z" fill="#EDEEFE"/>
<path d="M361.283 108.238H40.825C42.1006 107.105 43.4363 106.042 44.8264 105.052H356.601C358.214 106.035 359.776 107.098 361.283 108.238Z" fill="#EDEEFE"/>
<path d="M384.654 149.062H25.1812C25.057 148.009 24.9706 146.951 24.922 145.876H384.206C384.4 146.94 384.535 147.988 384.654 149.062Z" fill="#EDEEFE"/>
<path d="M470.919 189.886H61.9228C58.667 189.165 55.4973 188.099 52.4674 186.706H468.64C469.462 187.719 470.223 188.781 470.919 189.886Z" fill="#EDEEFE"/>
<path d="M476.022 227.53V230.716H114.648C114.789 229.668 114.881 228.606 114.924 227.53H476.022Z" fill="#EDEEFE"/>
<path d="M459.314 268.354C457.073 269.042 454.741 269.39 452.397 269.385C449.338 269.382 446.324 270.123 443.616 271.545H40.4956C41.2999 270.405 42.2034 269.339 43.1956 268.359L459.314 268.354Z" fill="#EDEEFE"/>
<path d="M131.448 189.98L77.4743 247.84C70.9787 254.804 71.3578 265.714 78.3211 272.21L78.404 272.287C85.3673 278.783 96.2778 278.404 102.773 271.44L156.747 213.581C163.243 206.617 162.864 195.707 155.901 189.211L155.818 189.134C148.855 182.638 137.944 183.017 131.448 189.98Z" fill="#FFA84D"/>
<path d="M131.448 189.98L77.4743 247.84C70.9787 254.804 71.3578 265.714 78.3211 272.21L78.404 272.287C85.3673 278.783 96.2778 278.404 102.773 271.44L156.747 213.581C163.243 206.617 162.864 195.707 155.901 189.211L155.818 189.134C148.855 182.638 137.944 183.017 131.448 189.98Z" fill="#FFA84D"/>
<path d="M161.38 202.101C160.445 200.006 159.097 198.122 157.416 196.561L157.33 196.48C155.675 194.935 153.731 193.732 151.611 192.939C149.49 192.146 147.235 191.778 144.972 191.857C142.709 191.935 140.485 192.459 138.424 193.398C136.364 194.336 134.509 195.672 132.965 197.327L78.9652 255.188C76.0443 258.308 74.3939 262.406 74.3374 266.68C72.9432 263.582 72.4951 260.142 73.0495 256.791C73.6038 253.44 75.1358 250.328 77.4532 247.844L131.453 189.983C132.998 188.328 134.854 186.993 136.915 186.055C138.975 185.116 141.201 184.593 143.464 184.515C145.727 184.437 147.983 184.805 150.104 185.599C152.224 186.392 154.168 187.596 155.823 189.141L155.904 189.217C157.672 190.859 159.073 192.855 160.016 195.075C160.96 197.295 161.424 199.689 161.38 202.101Z" fill="#FFBE83"/>
<path d="M263.44 303.977C261.292 304.716 259.019 305.023 256.752 304.882C254.485 304.741 252.268 304.155 250.227 303.156C248.187 302.158 246.364 300.767 244.861 299.063C243.359 297.359 242.208 295.375 241.473 293.226L234.766 273.683L231.159 263.148L213.096 211.2C211.608 206.86 211.905 202.106 213.922 197.985C215.938 193.864 219.51 190.713 223.85 189.225C228.19 187.737 232.944 188.034 237.065 190.051C241.186 192.067 244.337 195.639 245.825 199.979L261.005 243.524L274.197 282.005C274.936 284.154 275.244 286.427 275.103 288.695C274.962 290.963 274.375 293.181 273.376 295.222C272.377 297.263 270.985 299.087 269.28 300.59C267.575 302.092 265.591 303.243 263.44 303.977Z" fill="#FFA84D"/>
<path d="M264.731 303.481C264.315 303.664 263.883 303.826 263.445 303.983C261.296 304.723 259.022 305.031 256.753 304.891C254.485 304.75 252.266 304.164 250.225 303.165C248.183 302.165 246.359 300.773 244.856 299.068C243.353 297.362 242.202 295.377 241.467 293.226L222.119 236.791C221.185 234.092 220.934 231.204 221.39 228.384C221.845 225.565 222.992 222.903 224.728 220.635C226.463 218.367 228.734 216.565 231.337 215.39C233.94 214.215 236.793 213.703 239.642 213.9C235.652 215.631 232.461 218.802 230.706 222.782C228.951 226.762 228.762 231.257 230.176 235.37L249.53 291.811C250.629 295.039 252.659 297.87 255.364 299.946C258.069 302.023 261.328 303.252 264.731 303.481Z" fill="#FFBE83"/>
<path d="M144.737 215.936H228.254V305.414H144.737V215.936Z" fill="#FFDAB2"/>
<path d="M154.122 180.026H218.868C226.082 180.026 233.001 182.891 238.102 187.992C243.203 193.093 246.068 200.012 246.068 207.226C246.068 217.274 242.077 226.91 234.972 234.015C227.866 241.12 218.23 245.112 208.182 245.112H164.809C159.834 245.112 154.907 244.132 150.311 242.228C145.714 240.324 141.537 237.533 138.019 234.015C134.501 230.497 131.711 226.321 129.807 221.724C127.903 217.128 126.923 212.201 126.923 207.226C126.923 200.012 129.788 193.093 134.889 187.992C139.99 182.891 146.909 180.026 154.122 180.026Z" fill="#FFDAB2"/>
<path d="M144.737 215.936H228.254V305.414H144.737V215.936Z" fill="#FFDAB2"/>
<path d="M154.122 180.026H218.868C226.082 180.026 233.001 182.891 238.102 187.992C243.203 193.093 246.068 200.012 246.068 207.226C246.068 217.274 242.077 226.91 234.972 234.015C227.866 241.12 218.23 245.112 208.182 245.112H164.809C159.834 245.112 154.907 244.132 150.311 242.228C145.714 240.324 141.537 237.533 138.019 234.015C134.501 230.497 131.711 226.321 129.807 221.724C127.903 217.128 126.923 212.201 126.923 207.226C126.923 200.012 129.788 193.093 134.889 187.992C139.99 182.891 146.909 180.026 154.122 180.026Z" fill="#FFDAB2"/>
<path d="M322.23 270.4H257.873C248.32 270.4 240.576 278.144 240.576 287.696V287.702C240.576 297.254 248.32 304.998 257.873 304.998H322.23C331.782 304.998 339.526 297.254 339.526 287.702V287.696C339.526 278.144 331.782 270.4 322.23 270.4Z" fill="#FF9F8C"/>
<path d="M340.142 302.683C352.301 297.159 358.645 284.949 354.312 275.41C349.979 265.871 336.61 262.616 324.45 268.139C312.291 273.662 305.947 285.873 310.28 295.412C314.613 304.951 327.983 308.206 340.142 302.683Z" fill="#FF9F8C"/>
<path d="M354.3 275.46C353.993 274.769 353.632 274.102 353.22 273.467C355.488 282.529 349.23 293.123 338.144 298.162C337.113 298.632 336.057 299.043 334.979 299.393C330.552 300.892 325.814 301.226 321.22 300.365C320.896 300.365 320.567 300.397 320.232 300.403H313.871L255.88 300.44C252.934 300.443 250.035 299.692 247.461 298.26C244.886 296.827 242.721 294.759 241.17 292.254C242.164 295.922 244.34 299.16 247.361 301.467C250.381 303.774 254.078 305.021 257.878 305.014L322.23 304.976C322.561 304.976 322.89 304.966 323.218 304.944C328.946 305.98 334.854 305.204 340.12 302.725C352.286 297.2 358.631 284.991 354.3 275.46Z" fill="#F78F7A"/>
<path d="M218.62 180.026H205.282C212.495 180.026 219.412 182.891 224.513 187.991C229.614 193.09 232.48 200.007 232.482 207.22C232.487 212.197 231.51 217.126 229.605 221.724C227.701 226.322 224.907 230.499 221.385 234.015C220.466 234.932 219.502 235.803 218.496 236.623C217.308 237.576 216.347 238.782 215.685 240.154C215.023 241.525 214.675 243.027 214.667 244.55V305.414H228.259V239.356C230.69 237.833 232.941 236.042 234.971 234.015C242.013 226.987 246 217.466 246.068 207.517C246.16 192.397 233.74 180.026 218.62 180.026Z" fill="#FFECD9"/>
<path d="M335.738 267.713C337.447 265.461 337.006 262.25 334.753 260.541C332.501 258.832 329.29 259.273 327.581 261.526L319.478 272.209C317.77 274.462 318.211 277.673 320.463 279.381C322.716 281.09 325.927 280.649 327.636 278.396L335.738 267.713Z" fill="#FF9F8C"/>
<path d="M170.56 292.416H176.138C179.585 292.416 182.891 293.785 185.329 296.223C187.767 298.661 189.136 301.967 189.136 305.414H157.557C157.557 303.706 157.893 302.016 158.547 300.438C159.2 298.861 160.158 297.428 161.366 296.221C162.573 295.014 164.007 294.057 165.584 293.404C167.162 292.751 168.853 292.415 170.56 292.416Z" fill="#4970DB"/>
<path d="M160.878 284.532C161.327 288.505 160.385 292.51 158.211 295.866C156.038 299.222 152.769 301.72 148.96 302.935L148.544 303.065C148.139 303.189 147.723 303.292 147.302 303.378L146.881 303.464L146.492 303.535H146.411L146.071 303.583H146.039C145.305 303.686 144.565 303.74 143.825 303.745C143.576 303.745 143.317 303.745 143.063 303.745C142.68 303.745 142.296 303.707 141.913 303.67C141.53 303.632 141.087 303.567 140.671 303.497C138.979 303.205 137.34 302.659 135.811 301.877L134.812 301.369L82.675 274.763C80.1225 273.463 77.9333 271.548 76.3045 269.192C74.6757 266.835 73.6583 264.111 73.3438 261.263C73.2502 260.446 73.2159 259.623 73.2412 258.801C73.2412 258.385 73.279 257.969 73.3276 257.559C73.3762 257.149 73.4248 256.733 73.5004 256.317C73.611 255.696 73.7552 255.081 73.9324 254.476C73.99 254.27 74.0548 254.065 74.1268 253.86C74.2564 253.46 74.413 253.055 74.575 252.656C74.737 252.256 74.9314 251.862 75.115 251.473C75.2122 251.29 75.304 251.111 75.4066 250.933C75.6725 250.443 75.9664 249.969 76.2868 249.513L76.357 249.41C76.438 249.286 76.5244 249.167 76.6108 249.049C77.9846 247.193 79.7157 245.631 81.7021 244.454C83.6885 243.277 85.8901 242.51 88.1776 242.196C88.4746 242.158 88.7716 242.12 89.0686 242.099C92.2854 241.814 95.5171 242.447 98.389 243.924L151.53 271.043C154.085 272.34 156.276 274.252 157.908 276.607C159.539 278.962 160.56 281.685 160.878 284.532Z" fill="#FF9F8C"/>
<path d="M171.3 289.995C172.453 279.623 162.669 270.023 149.448 268.554C136.226 267.085 124.574 274.303 123.421 284.675C122.269 295.047 132.053 304.646 145.274 306.115C158.495 307.584 170.148 300.367 171.3 289.995Z" fill="#FF9F8C"/>
<path d="M153.134 305.36C151.01 305.576 148.868 305.565 146.746 305.327C142.533 304.889 138.465 303.542 134.823 301.38L82.6858 274.774C80.1333 273.474 77.9442 271.559 76.3153 269.203C74.6865 266.846 73.6691 264.122 73.3546 261.274C73.261 260.457 73.2267 259.634 73.252 258.812C73.252 258.396 73.2898 257.98 73.3384 257.57C73.387 257.159 73.4356 256.744 73.5112 256.328C73.6218 255.707 73.766 255.092 73.9432 254.486C74.0008 254.281 74.0656 254.076 74.1376 253.871C74.2672 253.471 74.4238 253.066 74.5858 252.667C74.7478 252.267 74.9422 251.873 75.1258 251.484C75.223 251.3 75.3148 251.122 75.4174 250.944C75.6833 250.454 75.9772 249.98 76.2976 249.524L76.3678 249.421C76.4488 249.297 76.5352 249.178 76.6216 249.059C77.9954 247.204 79.7265 245.642 81.7129 244.465C83.6993 243.288 85.9009 242.52 88.1884 242.207C88.4854 242.169 88.7824 242.131 89.0794 242.11L84.0358 248.46C83.8522 248.692 83.6686 248.935 83.4958 249.173C83.404 249.286 83.323 249.41 83.2366 249.535L83.1664 249.632C81.6006 251.974 80.6313 254.664 80.3431 257.467C80.0549 260.27 80.4565 263.101 81.5128 265.713C82.5692 268.325 84.2483 270.639 86.4038 272.454C88.5594 274.269 91.126 275.529 93.88 276.124C93.4642 276.2 93.0484 276.265 92.6326 276.313H92.449L127.263 294.079L141.681 301.439L142.685 301.979C143.649 302.471 144.656 302.872 145.693 303.178C146.087 303.292 146.476 303.394 146.87 303.475L146.481 303.545H146.4L146.06 303.594C148.337 304.469 150.713 305.062 153.134 305.36Z" fill="#FFC3B5"/>
<path d="M151.568 267.657C151.511 267.651 151.453 267.651 151.395 267.657L151.676 267.695L151.568 267.657Z" fill="#FCB798"/>
<path d="M158.115 273.276C160.806 272.408 162.284 269.523 161.416 266.832C160.548 264.141 157.663 262.664 154.972 263.532L142.211 267.648C139.521 268.516 138.043 271.401 138.911 274.092C139.779 276.783 142.664 278.26 145.355 277.392L158.115 273.276Z" fill="#FF9F8C"/>
<path d="M176.662 294.886C179.104 296.31 182.239 295.486 183.664 293.044C185.089 290.602 184.264 287.467 181.822 286.042L163.561 275.389C161.119 273.964 157.985 274.789 156.56 277.231C155.135 279.673 155.96 282.808 158.402 284.232L176.662 294.886Z" fill="#FF9F8C"/>
<path d="M173.1 304.298C175.542 305.723 178.676 304.898 180.101 302.456C181.526 300.014 180.701 296.88 178.259 295.455L159.998 284.801C157.556 283.377 154.422 284.201 152.997 286.643C151.572 289.086 152.397 292.22 154.839 293.645L173.1 304.298Z" fill="#FF9F8C"/>
<path d="M159.758 307.217C162.2 308.641 165.334 307.817 166.759 305.375C168.184 302.933 167.359 299.798 164.917 298.373L146.657 287.72C144.214 286.295 141.08 287.12 139.655 289.562C138.23 292.004 139.055 295.138 141.497 296.563L159.758 307.217Z" fill="#FF9F8C"/>
<path d="M158.929 285.591C159.503 280.382 154.588 275.567 147.951 274.835C141.314 274.104 135.468 277.733 134.894 282.941C134.32 288.15 139.235 292.965 145.872 293.697C152.509 294.428 158.355 290.799 158.929 285.591Z" fill="#FFC3B5"/>
<path d="M191.566 142.733L179.432 101.321C179.185 100.495 179.13 99.6239 179.269 98.7735C179.409 97.923 179.74 97.1155 180.238 96.412C180.736 95.7086 181.388 95.1276 182.143 94.7132C182.899 94.2988 183.739 94.0617 184.6 94.02C190.785 93.8255 196.86 95.6825 201.879 99.3015C206.898 102.92 210.579 108.098 212.348 114.028C214.117 119.957 213.874 126.305 211.659 132.083C209.443 137.86 205.378 142.742 200.098 145.968C199.348 146.434 198.501 146.721 197.623 146.807C196.744 146.892 195.858 146.774 195.032 146.461C194.207 146.148 193.464 145.649 192.863 145.002C192.262 144.356 191.818 143.579 191.566 142.733Z" fill="#082A3C"/>
<path d="M200.471 150.013L200.4 164.344L200.303 181.478L163.011 181.738L163.14 156.536L163.178 150.277L200.471 150.013Z" fill="#FF9F8C"/>
<path d="M204.164 171.645C204.542 171.638 204.918 171.71 205.266 171.857C205.615 172.004 205.928 172.222 206.187 172.498C206.446 172.774 206.643 173.101 206.767 173.458C206.892 173.816 206.939 174.195 206.907 174.572L206.691 177.083L206.324 181.257C206.265 181.917 205.964 182.533 205.48 182.986C204.996 183.439 204.363 183.698 203.7 183.714L160.019 184.686C159.641 184.693 159.266 184.621 158.917 184.474C158.569 184.327 158.255 184.109 157.996 183.833C157.738 183.557 157.54 183.23 157.416 182.873C157.292 182.515 157.244 182.136 157.276 181.759L157.859 175.074C157.919 174.414 158.219 173.798 158.703 173.345C159.187 172.892 159.821 172.633 160.484 172.617L204.164 171.645Z" fill="#FFDAB2"/>
<path d="M200.476 150.223L200.508 168.243C198.14 169.513 195.496 170.181 192.808 170.187H185.977C181.481 170.205 177.051 169.115 173.076 167.014C169.102 164.912 165.706 161.865 163.189 158.14V150.266L200.476 150.223Z" fill="#FE8F77"/>
<path d="M193.689 165.767L186.863 165.786C179.594 165.807 172.614 162.938 167.459 157.812C162.304 152.686 159.397 145.722 159.376 138.453L159.319 118.019C159.308 114.062 160.87 110.263 163.66 107.457C166.45 104.651 170.241 103.068 174.198 103.057L196.268 102.996C199.91 102.985 203.406 104.422 205.989 106.991C208.571 109.559 210.028 113.047 210.038 116.689L210.129 149.235C210.135 151.4 209.715 153.545 208.892 155.548C208.069 157.55 206.859 159.371 205.333 160.906C203.806 162.441 201.992 163.661 199.994 164.495C197.996 165.329 195.854 165.761 193.689 165.767Z" fill="#FF9F8C"/>
<path d="M210.018 116.7L210.11 149.24C210.117 151.406 209.697 153.552 208.874 155.555C208.052 157.558 206.842 159.38 205.315 160.916C203.788 162.451 201.973 163.671 199.974 164.505C197.976 165.339 195.832 165.77 193.667 165.775H186.846C183.386 165.786 179.954 165.143 176.732 163.88C178.928 164.425 181.182 164.697 183.444 164.69H190.265C192.43 164.684 194.573 164.252 196.572 163.418C198.57 162.584 200.384 161.364 201.911 159.829C203.438 158.293 204.648 156.472 205.471 154.469C206.294 152.466 206.714 150.32 206.708 148.155L206.616 115.62C206.611 113.026 205.871 110.486 204.48 108.296C203.089 106.106 201.105 104.356 198.759 103.249C201.91 103.825 204.761 105.485 206.817 107.941C208.873 110.398 210.006 113.496 210.018 116.7Z" fill="#FFC3B5"/>
<path d="M199.455 143.959C199.485 145.161 199.038 146.325 198.213 147.199C198.113 147.307 198.006 147.41 197.895 147.507C197.1 148.202 196.088 148.597 195.033 148.625H194.86C193.718 148.656 192.607 148.258 191.745 147.509C190.883 146.76 190.333 145.715 190.205 144.58C190.205 144.456 190.205 144.332 190.178 144.202C190.172 143.968 190.259 143.741 190.42 143.571C190.581 143.401 190.803 143.302 191.037 143.295L198.559 143.084C198.675 143.082 198.791 143.103 198.9 143.146C199.008 143.189 199.107 143.253 199.19 143.335C199.273 143.416 199.34 143.513 199.385 143.62C199.431 143.727 199.455 143.843 199.455 143.959Z" fill="#962F4A"/>
<path d="M194.919 147.944C194.928 148.179 194.911 148.415 194.871 148.646C193.729 148.679 192.617 148.282 191.754 147.532C190.892 146.783 190.343 145.737 190.216 144.602C190.751 144.43 191.318 144.384 191.873 144.47C192.428 144.555 192.955 144.768 193.414 145.092C193.872 145.416 194.249 145.843 194.514 146.338C194.779 146.833 194.925 147.383 194.941 147.944H194.919Z" fill="#E1617F"/>
<path d="M198.381 143.111C198.381 144.002 197.015 144.731 195.319 144.807C193.623 144.883 192.23 144.175 192.171 143.284L198.381 143.111Z" fill="white"/>
<path d="M186.771 134.455C187.853 134.455 188.731 133.578 188.731 132.495C188.731 131.412 187.853 130.535 186.771 130.535C185.688 130.535 184.811 131.412 184.811 132.495C184.811 133.578 185.688 134.455 186.771 134.455Z" fill="#541000"/>
<path d="M204.294 134.282C205.376 134.282 206.254 133.405 206.254 132.322C206.254 131.24 205.376 130.362 204.294 130.362C203.211 130.362 202.334 131.24 202.334 132.322C202.334 133.405 203.211 134.282 204.294 134.282Z" fill="#541000"/>
<path d="M164.96 117.969C171.462 117.969 176.732 112.698 176.732 106.197C176.732 99.6955 171.462 94.425 164.96 94.425C158.459 94.425 153.188 99.6955 153.188 106.197C153.188 112.698 158.459 117.969 164.96 117.969Z" fill="#082A3C"/>
<path d="M181.743 117.073C191.531 117.073 199.466 109.138 199.466 99.3498C199.466 89.5618 191.531 81.627 181.743 81.627C171.955 81.627 164.021 89.5618 164.021 99.3498C164.021 109.138 171.955 117.073 181.743 117.073Z" fill="#082A3C"/>
<path d="M164.96 117.969C171.462 117.969 176.732 112.698 176.732 106.197C176.732 99.6955 171.462 94.425 164.96 94.425C158.459 94.425 153.188 99.6955 153.188 106.197C153.188 112.698 158.459 117.969 164.96 117.969Z" fill="#082A3C"/>
<path d="M181.743 117.073C191.531 117.073 199.466 109.138 199.466 99.3498C199.466 89.5618 191.531 81.627 181.743 81.627C171.955 81.627 164.021 89.5618 164.021 99.3498C164.021 109.138 171.955 117.073 181.743 117.073Z" fill="#082A3C"/>
<path d="M196.431 89.4354C194.368 87.7892 191.963 86.6244 189.393 86.0261C186.822 85.4278 184.15 85.4112 181.572 85.9773C178.994 86.5434 176.575 87.678 174.491 89.2983C172.408 90.9187 170.712 92.9838 169.529 95.343C169.043 96.3153 168.645 97.3291 168.341 98.3724C166.304 98.4155 164.314 98.9865 162.564 100.03C160.814 101.073 159.365 102.552 158.359 104.323C157.353 106.094 156.823 108.096 156.823 110.133C156.822 112.17 157.351 114.172 158.356 115.944C156.289 114.543 154.721 112.52 153.879 110.169C153.037 107.818 152.964 105.26 153.672 102.864C154.379 100.469 155.83 98.3613 157.815 96.8451C159.799 95.329 162.215 94.4833 164.712 94.4304C165.647 91.1919 167.486 88.2872 170.014 86.0571C172.541 83.827 175.652 82.3639 178.982 81.8396C182.312 81.3152 185.722 81.7513 188.813 83.0967C191.903 84.4421 194.546 86.641 196.431 89.4354Z" fill="#011923"/>
<path d="M203.192 120.41C216.022 120.41 226.423 110.009 226.423 97.179C226.423 84.349 216.022 73.9482 203.192 73.9482C190.362 73.9482 179.961 84.349 179.961 97.179C179.961 110.009 190.362 120.41 203.192 120.41Z" fill="#082A3C"/>
<path d="M203.192 120.41C216.022 120.41 226.423 110.009 226.423 97.179C226.423 84.349 216.022 73.9482 203.192 73.9482C190.362 73.9482 179.961 84.349 179.961 97.179C179.961 110.009 190.362 120.41 203.192 120.41Z" fill="#082A3C"/>
<path d="M226.423 97.179C226.425 100.45 225.735 103.685 224.4 106.672C223.064 109.658 221.113 112.328 218.673 114.508C216.234 116.688 213.361 118.327 210.244 119.319C207.126 120.311 203.835 120.633 200.584 120.264C206.276 119.648 211.54 116.95 215.364 112.689C219.188 108.428 221.304 102.904 221.304 97.179C221.304 91.4536 219.188 85.93 215.364 81.6691C211.54 77.4082 206.276 74.7105 200.584 74.094C203.835 73.725 207.126 74.047 210.244 75.039C213.361 76.0309 216.234 77.6704 218.673 79.85C221.113 82.0295 223.064 84.7 224.4 87.6864C225.735 90.6727 226.425 93.9076 226.423 97.179Z" fill="#0F4D68"/>
<path d="M155.37 135.141L154.576 108.908C154.556 108.384 154.656 107.862 154.867 107.383C155.079 106.903 155.396 106.478 155.797 106.139C156.197 105.801 156.669 105.557 157.177 105.428C157.685 105.298 158.215 105.286 158.729 105.392C162.394 106.229 165.68 108.253 168.076 111.15C170.472 114.047 171.843 117.655 171.977 121.412C172.111 125.169 170.999 128.865 168.815 131.925C166.631 134.985 163.497 137.238 159.9 138.332C159.389 138.492 158.848 138.532 158.319 138.448C157.79 138.365 157.287 138.162 156.849 137.853C156.411 137.545 156.05 137.14 155.793 136.669C155.537 136.199 155.392 135.676 155.37 135.141Z" fill="#082A3C"/>
<path d="M154.517 135.503L156.552 116.543C156.59 116.165 156.714 115.799 156.913 115.475C157.113 115.151 157.384 114.877 157.706 114.674C158.028 114.47 158.392 114.343 158.77 114.301C159.148 114.259 159.531 114.304 159.89 114.432C162.449 115.395 164.618 117.178 166.058 119.503C167.497 121.828 168.127 124.564 167.849 127.285C167.571 130.006 166.401 132.558 164.521 134.543C162.64 136.529 160.156 137.837 157.454 138.262C157.069 138.327 156.675 138.301 156.302 138.188C155.928 138.075 155.586 137.877 155.302 137.61C155.017 137.343 154.799 137.014 154.662 136.648C154.526 136.283 154.476 135.891 154.517 135.503Z" fill="#0F4D68"/>
<path d="M161.072 144.289C165.796 144.289 169.626 140.459 169.626 135.735C169.626 131.011 165.796 127.181 161.072 127.181C156.348 127.181 152.519 131.011 152.519 135.735C152.519 140.459 156.348 144.289 161.072 144.289Z" fill="#FF9F8C"/>
<path d="M158.199 135.929C158.219 136.681 158.461 137.409 158.893 138.024C159.325 138.639 159.929 139.112 160.629 139.385C160.798 139.448 160.98 139.467 161.157 139.442C161.335 139.416 161.504 139.346 161.648 139.239C161.793 139.132 161.908 138.99 161.984 138.827C162.059 138.664 162.093 138.485 162.082 138.305L161.947 133.343C161.94 133.156 161.887 132.973 161.791 132.812C161.695 132.651 161.56 132.517 161.398 132.422C161.237 132.328 161.054 132.275 160.866 132.27C160.679 132.265 160.494 132.307 160.327 132.392C159.671 132.716 159.121 133.222 158.744 133.849C158.367 134.476 158.178 135.198 158.199 135.929Z" fill="#FB8265"/>
<path d="M355.348 128.359H388.401C394.425 128.359 400.202 130.752 404.461 135.011C408.721 139.27 411.114 145.047 411.114 151.071V245.285H355.348V128.359Z" fill="#011923"/>
<path d="M355.348 128.359H388.401C394.425 128.359 400.202 130.752 404.461 135.011C408.721 139.27 411.114 145.047 411.114 151.071V245.285H355.348V128.359Z" fill="#011923"/>
<path d="M411.108 151.071V245.285H388.18V151.071C388.18 145.053 385.792 139.281 381.539 135.022C377.287 130.764 371.518 128.367 365.5 128.359H388.396C394.42 128.359 400.197 130.752 404.456 135.011C408.716 139.27 411.108 145.047 411.108 151.071Z" fill="#082A3C"/>
<path d="M357.033 236.764C357.114 236.893 357.2 237.017 357.287 237.142C355.974 237.169 354.684 237.142 353.404 237.071C354.603 237.012 355.812 236.904 357.033 236.764Z" fill="#0F4D68"/>
<path d="M365.824 217.14C365.828 219.317 365.355 221.469 364.439 223.443C363.523 225.418 362.186 227.169 360.521 228.572L343.781 242.741L331.512 253.126L313.007 268.786C311.525 270.165 309.778 271.23 307.873 271.915C305.967 272.6 303.943 272.892 301.921 272.772C299.9 272.652 297.924 272.123 296.113 271.217C294.302 270.312 292.693 269.048 291.385 267.503C290.076 265.958 289.095 264.163 288.5 262.228C287.905 260.292 287.708 258.256 287.923 256.243C288.138 254.229 288.758 252.281 289.748 250.514C290.738 248.747 292.075 247.2 293.68 245.965L341.2 205.741C343.378 203.905 346.035 202.728 348.859 202.35C351.682 201.971 354.555 202.405 357.141 203.602C359.726 204.799 361.916 206.708 363.454 209.106C364.992 211.504 365.814 214.291 365.824 217.14Z" fill="#FFB2BF"/>
<path d="M343.781 242.758L331.512 253.142C328.752 250.033 327.23 246.019 327.236 241.861V240.587C327.223 233.359 329.438 226.303 333.581 220.38C334.768 218.671 336.107 217.074 337.582 215.606C338.235 214.948 338.91 214.321 339.618 213.727C337.742 222.211 338.571 231.07 341.988 239.059C342.528 240.36 343.133 241.57 343.781 242.758Z" fill="#FF6D8D"/>
<path d="M365.824 217.14C365.826 217.727 365.79 218.313 365.716 218.895C365.383 216.219 364.334 213.683 362.679 211.554C361.024 209.425 358.825 207.783 356.314 206.8C353.803 205.817 351.074 205.53 348.413 205.97C345.753 206.41 343.261 207.56 341.2 209.299L293.68 249.54C290.777 251.984 288.921 255.447 288.491 259.217C288.186 256.751 288.501 254.248 289.407 251.934C290.313 249.62 291.782 247.569 293.68 245.965L341.2 205.741C343.378 203.902 346.035 202.724 348.859 202.344C351.683 201.964 354.558 202.398 357.144 203.595C359.73 204.793 361.92 206.703 363.458 209.102C364.996 211.502 365.817 214.29 365.824 217.14Z" fill="#F9E0E5"/>
<path d="M340.844 242.866H387.543V305.414H340.844V242.866Z" fill="#0D9A73"/>
<path d="M387.543 242.866V255.48C373.444 264.073 357.344 268.833 340.838 269.288V242.828L387.543 242.866Z" fill="#0B8962"/>
<path d="M362.26 207.496C361.665 206.793 361.005 206.147 360.289 205.568C362.773 208.604 363.965 212.496 363.608 216.403C363.25 220.31 361.372 223.92 358.377 226.455L310.857 266.685C308.191 268.941 304.82 270.193 301.328 270.224C297.836 270.256 294.443 269.065 291.736 266.858C291.79 266.923 291.839 266.993 291.893 267.063C294.458 270.091 298.121 271.977 302.077 272.305C306.032 272.633 309.956 271.377 312.985 268.813L360.505 228.588C363.534 226.023 365.421 222.361 365.75 218.405C366.079 214.45 364.824 210.526 362.26 207.496Z" fill="#FF6D8D"/>
<path d="M288.271 258.792C288.929 267.033 296.143 273.179 304.382 272.521C312.621 271.862 318.767 264.648 318.108 256.407L313.659 200.754C313.001 192.513 305.787 186.367 297.548 187.025C289.309 187.684 283.164 194.898 283.822 203.139L288.271 258.792Z" fill="#FFB2BF"/>
<path opacity="0.38" d="M296.566 242.792L296.572 242.792C299.018 242.596 300.843 240.454 300.648 238.008L299.359 221.886C299.164 219.439 297.022 217.615 294.575 217.81L294.57 217.811C292.123 218.006 290.298 220.148 290.494 222.595L291.782 238.716C291.978 241.163 294.12 242.988 296.566 242.792Z" fill="#F9E0E5"/>
<path d="M396.793 267.068C401.746 273.686 411.126 275.037 417.744 270.085C424.361 265.133 425.711 255.752 420.757 249.133L390.868 209.194C385.915 202.575 376.534 201.224 369.917 206.177C363.299 211.129 361.95 220.509 366.903 227.128L396.793 267.068Z" fill="#FFB2BF"/>
<path d="M379.983 301.217C377.589 309.13 382.062 317.485 389.974 319.878C397.885 322.271 406.239 317.796 408.633 309.883L423.076 262.135C425.47 254.222 420.997 245.867 413.085 243.474C405.174 241.081 396.82 245.556 394.426 253.469L379.983 301.217Z" fill="#FFB2BF"/>
<path d="M406.911 329.084C414.23 324.298 415.242 312.894 409.172 303.611C403.102 294.328 392.249 290.682 384.93 295.467C377.612 300.253 376.599 311.657 382.669 320.94C388.739 330.223 399.593 333.869 406.911 329.084Z" fill="#FFB2BF"/>
<path d="M388.385 320.987C387.895 320.238 387.444 319.463 387.035 318.665C384.216 313.179 383.709 307.239 385.356 302.465C385.442 302.05 385.55 301.639 385.674 301.223L387.834 294.095L396.242 266.28L397.862 260.831L393.796 255.383L372.628 227.081C370.489 224.219 369.444 220.687 369.682 217.122C369.92 213.557 371.424 210.194 373.924 207.641C375.063 206.516 375.86 205.091 376.224 203.532L376.257 203.386C373.743 203.836 371.386 204.921 369.41 206.538C367.434 208.155 365.904 210.251 364.967 212.627C364.03 215.002 363.716 217.578 364.055 220.109C364.394 222.64 365.375 225.042 366.904 227.087L392.165 260.88L379.95 301.267C379.821 301.68 379.715 302.1 379.632 302.525C377.753 307.963 378.692 314.945 382.656 321.014C387.581 328.542 395.616 332.354 402.414 330.994C397.209 330 391.96 326.468 388.385 320.987Z" fill="#FF6D8D"/>
<path d="M380.634 289.883L414.376 300.089C415.56 300.448 416.811 299.778 417.17 298.593L417.171 298.588C417.529 297.403 416.86 296.152 415.675 295.794L381.934 285.588C380.749 285.229 379.498 285.899 379.14 287.084L379.138 287.089C378.78 288.274 379.45 289.524 380.634 289.883Z" fill="#FFA84D"/>
<path d="M384.397 285.211L413.486 294.011C414.671 294.369 415.922 293.699 416.28 292.514L416.281 292.509C416.64 291.325 415.97 290.074 414.785 289.715L385.696 280.916C384.511 280.558 383.26 281.228 382.902 282.412L382.9 282.417C382.542 283.602 383.212 284.853 384.397 285.211Z" fill="#FFECD9"/>
<path d="M304.518 272.479C304.477 272.484 304.435 272.484 304.394 272.479C303.989 272.512 303.589 272.528 303.184 272.528C299.427 272.524 295.809 271.107 293.048 268.56C290.287 266.012 288.585 262.519 288.28 258.774L283.841 203.1C283.665 200.928 283.965 198.743 284.722 196.699C285.478 194.655 286.673 192.802 288.221 191.268C289.77 189.734 291.635 188.558 293.686 187.821C295.737 187.084 297.925 186.805 300.095 187.003C296.161 187.345 292.522 189.23 289.972 192.246C287.423 195.262 286.17 199.164 286.487 203.1L290.926 258.774C291.211 262.295 292.732 265.601 295.219 268.109C297.706 270.617 301 272.165 304.518 272.479Z" fill="#F9E0E5"/>
<path d="M400.173 236.931V238.2C400.173 242.718 398.379 247.05 395.185 250.245C391.991 253.44 387.659 255.236 383.142 255.237H346.6C344.361 255.24 342.143 254.801 340.073 253.946C338.003 253.092 336.122 251.837 334.537 250.255C332.952 248.673 331.695 246.794 330.837 244.725C329.979 242.657 329.537 240.439 329.536 238.2V236.92C329.478 232.245 330.349 227.605 332.098 223.27C333.847 218.934 336.439 214.989 339.725 211.662C343.01 208.336 346.923 205.695 351.237 203.893C355.551 202.09 360.179 201.162 364.855 201.162C369.53 201.162 374.159 202.09 378.472 203.893C382.786 205.695 386.699 208.336 389.985 211.662C393.27 214.989 395.862 218.934 397.611 223.27C399.36 227.605 400.231 232.245 400.173 236.92V236.931Z" fill="#0D9A73"/>
<path d="M329.358 236.931V238.2C329.358 242.718 331.152 247.051 334.346 250.247C337.539 253.443 341.871 255.24 346.389 255.242H361.72C354.018 250.817 347.929 244.051 344.335 235.928C340.742 227.804 339.833 218.747 341.74 210.071C341.033 210.665 340.358 211.297 339.699 211.951C338.228 213.424 336.889 215.023 335.697 216.73C331.559 222.652 329.345 229.706 329.358 236.931Z" fill="#13B887"/>
<path d="M393.834 216.74C386.741 224.286 377.031 228.836 366.693 229.457C365.873 229.511 365.036 229.538 364.193 229.538C363.686 229.538 363.173 229.538 362.665 229.506C352.364 229.137 342.589 224.863 335.325 217.55C341.643 207.96 352.508 200.94 364.852 200.94C374.61 200.94 383.439 205.562 389.832 211.951C391.304 213.427 392.642 215.03 393.834 216.74Z" fill="#FFB2BF"/>
<path d="M366.693 229.457C365.873 229.511 365.036 229.538 364.193 229.538C363.686 229.538 363.173 229.538 362.665 229.506L363.119 226.93C363.183 226.57 363.372 226.243 363.653 226.008C363.934 225.773 364.289 225.644 364.655 225.644C365.021 225.644 365.376 225.773 365.657 226.008C365.938 226.243 366.127 226.57 366.191 226.93L366.693 229.457Z" fill="#FF6D8D"/>
<path d="M316.814 212.29C322.671 205.797 320.742 194.511 312.506 187.082C304.27 179.653 292.846 178.895 286.989 185.388C281.132 191.881 283.061 203.167 291.297 210.596C299.533 218.024 310.957 218.783 316.814 212.29Z" fill="#FFB2BF"/>
<path d="M318.779 195.977C317.529 193.918 315.987 192.052 314.2 190.437C305.965 183.012 294.544 182.251 288.68 188.747C284.9 192.959 284.36 199.196 286.719 205.087C282.61 198.332 282.486 190.437 287.016 185.415C292.875 178.935 304.296 179.68 312.531 187.105C315.266 189.545 317.404 192.58 318.779 195.977Z" fill="#F9E0E5"/>
<path d="M385.448 155.11C393.315 155.11 399.693 148.732 399.693 140.865C399.693 132.998 393.315 126.62 385.448 126.62C377.58 126.62 371.202 132.998 371.202 140.865C371.202 148.732 377.58 155.11 385.448 155.11Z" fill="#FFA84D"/>
<path d="M382.623 154.538C389.853 154.538 395.713 148.677 395.713 141.448C395.713 134.219 389.853 128.359 382.623 128.359C375.394 128.359 369.534 134.219 369.534 141.448C369.534 148.677 375.394 154.538 382.623 154.538Z" fill="#082A3C"/>
<path d="M360.789 127.124L367.185 126.805C372.493 126.54 377.689 128.394 381.63 131.96C385.571 135.526 387.934 140.511 388.199 145.819L389.316 168.164C389.663 175.124 387.232 181.937 382.556 187.105C377.88 192.272 371.343 195.371 364.383 195.719L362.431 195.816C355.47 196.164 348.657 193.732 343.49 189.057C338.322 184.381 335.224 177.844 334.876 170.883L334.16 156.554C333.793 149.121 336.391 141.847 341.384 136.329C346.377 130.81 353.356 127.5 360.789 127.124Z" fill="#082A3C"/>
<path d="M374.21 187.823L374.367 192.77L374.707 203.451C374.742 204.58 374.555 205.706 374.156 206.762C373.756 207.819 373.153 208.787 372.379 209.611C371.606 210.434 370.678 211.098 369.648 211.563C368.618 212.027 367.507 212.285 366.377 212.32C365.248 212.356 364.123 212.169 363.066 211.769C362.009 211.37 361.041 210.766 360.218 209.993C359.394 209.219 358.731 208.291 358.266 207.261C357.801 206.232 357.543 205.12 357.508 203.991L357.47 202.868L357.011 188.363C356.976 187.234 357.163 186.109 357.562 185.052C357.962 183.995 358.566 183.027 359.339 182.204C360.112 181.38 361.041 180.717 362.07 180.252C363.1 179.787 364.211 179.529 365.341 179.494C366.47 179.458 367.595 179.646 368.652 180.045C369.709 180.445 370.677 181.048 371.501 181.822C372.324 182.595 372.987 183.523 373.452 184.553C373.917 185.583 374.175 186.694 374.21 187.823Z" fill="#FFB2BF"/>
<path d="M374.21 187.823L374.367 192.77C370.098 198.02 364.115 201.599 357.47 202.879L357.011 188.374C356.976 187.245 357.163 186.12 357.562 185.063C357.962 184.006 358.566 183.038 359.339 182.214C360.112 181.391 361.041 180.728 362.07 180.263C363.1 179.798 364.211 179.54 365.341 179.505C366.47 179.469 367.595 179.657 368.652 180.056C369.709 180.455 370.677 181.059 371.501 181.833C372.324 182.606 372.987 183.534 373.452 184.564C373.917 185.594 374.175 186.705 374.21 187.834V187.823Z" fill="#F9A0B4"/>
<path d="M387.035 148.56V167.368C387.019 175.042 383.957 182.395 378.521 187.812C373.086 193.228 365.722 196.264 358.048 196.253C352.128 196.241 346.456 193.879 342.277 189.686C338.099 185.492 335.758 179.811 335.768 173.891V158.107C335.768 158.01 335.768 157.918 335.768 157.821C335.768 157.389 335.768 156.957 335.811 156.53C336.224 148.937 339.508 141.785 344.998 136.523C350.487 131.261 357.772 128.283 365.376 128.191H366.726C368.016 128.19 369.304 128.313 370.571 128.558C375.213 129.458 379.396 131.947 382.401 135.597C385.406 139.248 387.045 143.832 387.035 148.56Z" fill="#FFB2BF"/>
<path d="M355.159 196.08C350.883 194.49 347.197 191.629 344.596 187.881C341.995 184.133 340.605 179.679 340.611 175.117L340.638 159.333C340.638 159.236 340.638 159.144 340.638 159.047C340.638 158.615 340.638 158.183 340.687 157.756C341.1 150.163 344.384 143.011 349.874 137.749C355.364 132.487 362.648 129.509 370.252 129.417H371.597C372.4 129.413 373.203 129.463 374 129.568C372.888 129.132 371.738 128.801 370.565 128.58C369.298 128.336 368.011 128.211 366.72 128.207H365.37C357.767 128.3 350.484 131.278 344.993 136.539C339.503 141.799 336.217 148.949 335.8 156.541C335.768 156.973 335.757 157.4 335.751 157.837V158.123V173.902C335.74 179.326 337.704 184.567 341.276 188.649C344.847 192.73 349.782 195.372 355.159 196.08Z" fill="#F9A0B4"/>
<path d="M391.776 161.72L385.642 150.407C385.052 149.318 384.279 148.339 383.358 147.512L384 147.34C384.227 147.259 384.654 144.1 384.643 143.889C384.64 143.835 384.629 143.783 384.611 143.732C383.413 140.389 381.552 137.322 379.14 134.717C376.727 132.111 373.812 130.02 370.571 128.569C369.304 128.323 368.016 128.2 366.726 128.202H365.376C357.77 128.291 350.483 131.268 344.991 136.53C339.499 141.793 336.213 148.946 335.8 156.541C341.132 158.08 346.814 157.891 352.032 156.001L360.672 153.652C363.591 152.858 366.692 153.074 369.473 154.264C372.254 155.454 374.551 157.548 375.992 160.208C377.38 162.768 379.728 164.672 382.52 165.502C385.312 166.331 388.319 166.018 390.88 164.63C391.384 164.362 391.76 163.905 391.928 163.36C392.096 162.815 392.042 162.225 391.776 161.72Z" fill="#F9A0B4"/>
<path d="M374.178 139.221L377.241 139.068C379.308 138.963 381.375 139.266 383.325 139.961C385.274 140.656 387.068 141.728 388.602 143.117C390.137 144.506 391.382 146.184 392.267 148.055C393.152 149.926 393.659 151.953 393.76 154.02L394.203 162.903C394.244 163.719 393.959 164.519 393.41 165.125C392.861 165.732 392.094 166.095 391.278 166.136C389.212 166.239 387.146 165.934 385.198 165.238C383.251 164.543 381.459 163.47 379.927 162.081C378.394 160.692 377.15 159.015 376.266 157.145C375.382 155.275 374.876 153.249 374.775 151.184L374.178 139.221Z" fill="#082A3C"/>
<path d="M385.928 170.992C390.933 170.992 394.989 166.935 394.989 161.93C394.989 156.926 390.933 152.869 385.928 152.869C380.924 152.869 376.867 156.926 376.867 161.93C376.867 166.935 380.924 170.992 385.928 170.992Z" fill="#FFB2BF"/>
<path d="M386.776 170.948C385.892 177.947 382.481 184.383 377.186 189.044C371.891 193.706 365.076 196.273 358.021 196.264C354.854 196.264 351.724 195.586 348.841 194.276C350.796 194.834 352.819 195.114 354.851 195.108C361.754 195.114 368.431 192.654 373.679 188.17C378.927 183.687 382.4 177.476 383.471 170.657C383.514 170.376 383.558 170.09 383.59 169.804C384.763 169.691 385.903 169.354 386.949 168.81C388.376 168.059 389.577 166.942 390.429 165.573C391.281 164.204 391.753 162.633 391.796 161.021C391.84 159.409 391.453 157.815 390.676 156.402C389.899 154.989 388.76 153.809 387.375 152.983C389.551 153.337 391.523 154.472 392.922 156.175C394.321 157.878 395.052 160.033 394.976 162.236C394.901 164.44 394.025 166.54 392.512 168.143C391 169.747 388.955 170.744 386.76 170.948H386.776Z" fill="#FDC3CD"/>
<path d="M387.392 152.983H387.273H387.03V152.831L387.392 152.983Z" fill="#F9E0E5"/>
<path d="M388.963 161.309C388.795 160.567 388.412 159.891 387.862 159.366C387.311 158.84 386.618 158.489 385.869 158.356C385.689 158.323 385.503 158.337 385.33 158.396C385.156 158.455 385.001 158.557 384.878 158.692C384.755 158.828 384.668 158.992 384.626 159.171C384.584 159.349 384.588 159.535 384.638 159.711L385.75 164.62C385.793 164.803 385.882 164.973 386.008 165.114C386.134 165.254 386.294 165.36 386.472 165.423C386.65 165.485 386.841 165.502 387.027 165.471C387.214 165.44 387.389 165.363 387.537 165.246C388.127 164.796 388.575 164.185 388.828 163.487C389.081 162.789 389.128 162.033 388.963 161.309Z" fill="#F9A0B4"/>
<path d="M343.387 164.074C344.58 164.074 345.547 163.107 345.547 161.914C345.547 160.721 344.58 159.754 343.387 159.754C342.194 159.754 341.227 160.721 341.227 161.914C341.227 163.107 342.194 164.074 343.387 164.074Z" fill="#473A82"/>
<path d="M360.861 164.89C362.054 164.89 363.021 163.923 363.021 162.73C363.021 161.537 362.054 160.57 360.861 160.57C359.668 160.57 358.701 161.537 358.701 162.73C358.701 163.923 359.668 164.89 360.861 164.89Z" fill="#473A82"/>
<path d="M390.659 145.791L366.152 152.592C357.677 154.944 348.615 153.833 340.96 149.503C333.304 145.174 327.682 137.981 325.33 129.506L349.838 122.705C358.313 120.353 367.375 121.464 375.03 125.793C382.686 130.123 388.308 137.316 390.659 145.791Z" fill="#082A3C"/>
<path d="M337.609 147.296L337.517 147.194C332.965 141.794 335.633 133.451 342.447 131.534L355.456 127.921C360.307 126.573 365.402 126.348 370.352 127.264C375.303 128.18 379.98 130.213 384.027 133.208C379.933 128.368 374.537 124.804 368.478 122.937C362.42 121.071 355.953 120.981 349.845 122.678L325.362 129.466C327.324 136.617 331.638 142.899 337.609 147.296Z" fill="#0F4D68"/>
<path d="M404.191 155.251C404.191 153.762 402.985 152.556 401.496 152.556C400.008 152.556 398.802 153.762 398.802 155.251V218.398C398.802 219.886 400.008 221.093 401.496 221.093C402.985 221.093 404.191 219.886 404.191 218.398V155.251Z" fill="#0F4D68"/>
<path d="M347.718 170.651C347.701 171.246 347.802 171.838 348.014 172.394C348.226 172.95 348.546 173.459 348.954 173.891C349.057 173.999 349.165 174.102 349.273 174.199C350.067 174.895 351.08 175.29 352.135 175.317H352.324C353.287 175.349 354.234 175.069 355.024 174.518C355.562 174.15 356.015 173.67 356.35 173.11C356.686 172.551 356.897 171.926 356.968 171.278C356.976 171.152 356.976 171.026 356.968 170.9C356.973 170.784 356.954 170.668 356.913 170.56C356.873 170.451 356.81 170.352 356.73 170.268C356.568 170.101 356.348 170.002 356.115 169.993L348.593 169.782C348.362 169.782 348.14 169.873 347.976 170.036C347.812 170.199 347.719 170.42 347.718 170.651Z" fill="#962F4A"/>
<path d="M352.248 174.637C352.243 174.872 352.259 175.107 352.297 175.339H352.324C353.466 175.373 354.578 174.975 355.44 174.226C356.301 173.476 356.849 172.429 356.973 171.294C356.439 171.122 355.872 171.077 355.317 171.162C354.762 171.247 354.234 171.46 353.775 171.784C353.317 172.109 352.94 172.535 352.675 173.03C352.41 173.525 352.264 174.075 352.248 174.637Z" fill="#E1617F"/>
<path d="M348.792 169.804C348.792 170.695 350.159 171.451 351.849 171.499C353.539 171.548 354.938 170.873 354.997 169.976L348.792 169.804Z" fill="white"/>
<path d="M268.219 295.321H271.508C271.921 295.321 272.33 295.403 272.712 295.561C273.094 295.719 273.441 295.951 273.734 296.243C274.026 296.536 274.258 296.883 274.416 297.265C274.574 297.647 274.656 298.056 274.656 298.469V300.3H265.06V298.469C265.06 298.055 265.142 297.645 265.301 297.262C265.46 296.879 265.692 296.532 265.986 296.239C266.279 295.947 266.628 295.715 267.011 295.558C267.394 295.4 267.805 295.32 268.219 295.321Z" fill="#D7E2FF"/>
<path d="M258.639 295.321H261.928C262.341 295.321 262.751 295.403 263.133 295.561C263.515 295.719 263.862 295.951 264.154 296.243C264.446 296.536 264.678 296.883 264.837 297.265C264.995 297.647 265.076 298.056 265.076 298.469V300.3H255.491V298.469C255.491 298.056 255.573 297.647 255.731 297.265C255.889 296.883 256.121 296.536 256.413 296.243C256.706 295.951 257.053 295.719 257.435 295.561C257.817 295.403 258.226 295.321 258.639 295.321Z" fill="#D7E2FF"/>
<path d="M249.054 295.321H252.343C252.756 295.321 253.166 295.403 253.548 295.561C253.93 295.719 254.277 295.951 254.569 296.243C254.861 296.536 255.093 296.883 255.252 297.265C255.41 297.647 255.491 298.056 255.491 298.469V300.3H245.906V298.469C245.906 298.056 245.988 297.647 246.146 297.265C246.304 296.883 246.536 296.536 246.828 296.243C247.121 295.951 247.468 295.719 247.85 295.561C248.232 295.403 248.641 295.321 249.054 295.321Z" fill="#D7E2FF"/>
<path d="M239.475 295.321H242.763C243.598 295.321 244.399 295.653 244.99 296.243C245.58 296.834 245.912 297.634 245.912 298.469V300.3H236.327V298.469C236.327 298.056 236.408 297.647 236.566 297.265C236.724 296.883 236.956 296.536 237.249 296.243C237.541 295.951 237.888 295.719 238.27 295.561C238.652 295.403 239.061 295.321 239.475 295.321Z" fill="#D7E2FF"/>
<path d="M229.89 295.321H233.2C233.613 295.321 234.023 295.403 234.405 295.561C234.787 295.719 235.134 295.951 235.426 296.243C235.718 296.536 235.95 296.883 236.109 297.265C236.267 297.647 236.348 298.056 236.348 298.469V300.3H226.72V298.469C226.72 298.054 226.802 297.643 226.962 297.26C227.121 296.876 227.355 296.528 227.65 296.236C227.944 295.943 228.294 295.712 228.678 295.555C229.063 295.398 229.475 295.318 229.89 295.321Z" fill="#D7E2FF"/>
<path d="M220.305 295.321H223.593C224.007 295.321 224.416 295.403 224.798 295.561C225.18 295.719 225.527 295.951 225.82 296.243C226.112 296.536 226.344 296.883 226.502 297.265C226.66 297.647 226.742 298.056 226.742 298.469V300.3H217.162V298.469C217.162 297.635 217.493 296.835 218.082 296.245C218.671 295.655 219.471 295.323 220.305 295.321Z" fill="#D7E2FF"/>
<path d="M210.725 295.321H214.014C214.427 295.321 214.837 295.403 215.219 295.561C215.601 295.719 215.948 295.951 216.24 296.243C216.532 296.536 216.764 296.883 216.922 297.265C217.081 297.647 217.162 298.056 217.162 298.469V300.3H207.577V298.469C207.577 298.056 207.658 297.647 207.817 297.265C207.975 296.883 208.207 296.536 208.499 296.243C208.791 295.951 209.138 295.719 209.52 295.561C209.902 295.403 210.312 295.321 210.725 295.321Z" fill="#D7E2FF"/>
<path d="M300.311 297.605H198.748C196.592 297.605 194.844 299.353 194.844 301.51C194.844 303.666 196.592 305.414 198.748 305.414H300.311C302.467 305.414 304.215 303.666 304.215 301.51C304.215 299.353 302.467 297.605 300.311 297.605Z" fill="#4970DB"/>
<path d="M274.083 305.408H365.343C367.204 305.411 369.011 304.792 370.479 303.649C371.947 302.506 372.99 300.905 373.443 299.101L391.231 228.431C391.542 227.2 391.567 225.913 391.305 224.67C391.043 223.427 390.501 222.26 389.72 221.259C388.939 220.257 387.939 219.447 386.797 218.891C385.655 218.334 384.401 218.046 383.131 218.047H302.579C300.719 218.047 298.912 218.668 297.445 219.812C295.977 220.955 294.934 222.556 294.479 224.36L274.083 305.408Z" fill="#5476EF"/>
<path d="M391.22 228.437L373.438 299.101C372.983 300.905 371.94 302.506 370.473 303.649C369.005 304.793 367.198 305.414 365.338 305.414H274.078L276.049 297.6H348.15C350.01 297.6 351.817 296.979 353.284 295.835C354.752 294.692 355.795 293.091 356.25 291.287L374.032 220.628C374.243 219.785 374.323 218.915 374.27 218.047H383.12C384.39 218.048 385.644 218.337 386.785 218.895C387.926 219.453 388.925 220.263 389.706 221.265C390.487 222.266 391.03 223.433 391.292 224.676C391.554 225.919 391.53 227.205 391.22 228.437Z" fill="#4970DB"/>
<path d="M338.365 268.634C340.888 268.634 342.933 266.589 342.933 264.066C342.933 261.543 340.888 259.498 338.365 259.498C335.842 259.498 333.797 261.543 333.797 264.066C333.797 266.589 335.842 268.634 338.365 268.634Z" fill="#D7E2FF"/>
<path d="M344.483 270.908C343.762 272.037 342.797 272.99 341.659 273.697C340.521 274.404 339.238 274.846 337.906 274.991C336.574 275.137 335.227 274.981 333.963 274.536C332.699 274.091 331.551 273.368 330.604 272.42C329.657 271.473 328.934 270.325 328.49 269.061C328.045 267.797 327.89 266.449 328.036 265.117C328.182 263.785 328.625 262.503 329.332 261.365C330.039 260.227 330.993 259.262 332.123 258.542C331.026 260.26 330.548 262.302 330.769 264.329C330.99 266.355 331.896 268.246 333.337 269.688C334.779 271.13 336.669 272.037 338.696 272.259C340.722 272.481 342.764 272.004 344.483 270.908Z" fill="#D7E2FF"/>
</svg>
