<svg width="430" height="314" viewBox="0 0 430 314" fill="none" xmlns="http://www.w3.org/2000/svg">
<g clip-path="url(#clip0)">
<path d="M208.393 313.157C293.219 313.157 361.984 244.362 361.984 159.498C361.984 74.6346 293.219 5.839 208.393 5.839C123.567 5.839 54.8017 74.6346 54.8017 159.498C54.8017 244.362 123.567 313.157 208.393 313.157Z" fill="#BFA1CC"/>
<path d="M353.049 65.4844C351.256 66.7566 349.599 68.2107 348.105 69.8237" stroke="#808285" stroke-width="5" stroke-miterlimit="10" stroke-linecap="round"/>
<path d="M354.379 129.09H400.826C401.323 129.089 401.818 129.027 402.3 128.905H402.713C409.313 128.784 415.602 126.076 420.226 121.364C424.851 116.652 427.442 110.312 427.442 103.708C427.442 97.1036 424.851 90.7635 420.226 86.0513C415.602 81.339 409.313 78.6313 402.713 78.5105C401.871 78.5105 400.969 78.5611 400.119 78.6453C396.824 71.0512 390.675 65.0591 383 61.9642C375.325 58.8692 366.742 58.9201 359.104 62.1057" stroke="#808285" stroke-width="5" stroke-miterlimit="10" stroke-linecap="round"/>
<path d="M344.778 129.09H347.667" stroke="#808285" stroke-width="5" stroke-miterlimit="10" stroke-linecap="round"/>
<path d="M343.582 76.1429C341.369 80.1908 340.083 84.6806 339.818 89.287C337.16 88.3756 334.344 88.0228 331.544 88.2509C328.744 88.4789 326.021 89.2828 323.547 90.6123C321.072 91.9417 318.898 93.768 317.161 95.9768C315.424 98.1857 314.162 100.729 313.453 103.449C312.745 106.168 312.605 109.005 313.043 111.781C313.481 114.557 314.487 117.213 315.998 119.582C317.509 121.951 319.493 123.982 321.825 125.549C324.157 127.115 326.788 128.183 329.551 128.685C330.256 128.956 331.003 129.096 331.758 129.098H338.108" stroke="#808285" stroke-width="5" stroke-miterlimit="10" stroke-linecap="round"/>
<path d="M418.891 101.445C418.891 104.138 418.361 106.804 417.33 109.291C416.299 111.779 414.788 114.038 412.883 115.941C410.978 117.843 408.717 119.351 406.229 120.379C403.741 121.406 401.076 121.933 398.384 121.928" stroke="#808285" stroke-width="5" stroke-linecap="round" stroke-linejoin="round"/>
<path d="M122.144 6.4962C121.672 6.88378 121.217 7.28822 120.788 7.71793" stroke="#808285" stroke-width="5" stroke-miterlimit="10" stroke-linecap="round"/>
<path d="M127.374 45.069H152.758C153.065 45.0682 153.37 45.0286 153.667 44.951H153.92C156.009 45.0198 158.091 44.6674 160.041 43.915C161.991 43.1626 163.77 42.0255 165.273 40.5713C166.775 39.117 167.969 37.3754 168.785 35.45C169.601 33.5246 170.021 31.4547 170.021 29.3635C170.021 27.2723 169.601 25.2024 168.785 23.277C167.969 21.3516 166.775 19.61 165.273 18.1557C163.77 16.7015 161.991 15.5644 160.041 14.812C158.091 14.0596 156.009 13.7073 153.92 13.776C153.382 13.7744 152.845 13.8026 152.311 13.8603C150.801 10.3709 148.304 7.39977 145.127 5.31279C141.95 3.22581 138.232 2.11418 134.431 2.11485C132.932 2.11768 131.437 2.2901 129.976 2.62881" stroke="#808285" stroke-width="5" stroke-miterlimit="10" stroke-linecap="round"/>
<path d="M119.743 45.0606H119.845" stroke="#808285" stroke-width="5" stroke-miterlimit="10" stroke-linecap="round"/>
<path d="M116.577 13.8013C115.662 15.8984 115.124 18.1401 114.985 20.4239C113.336 19.846 111.584 19.6168 109.842 19.7507C108.1 19.8846 106.404 20.3787 104.862 21.2018C103.32 22.0249 101.966 23.1591 100.885 24.5326C99.8037 25.9061 99.0191 27.4891 98.5807 29.1815C98.1423 30.8739 98.0596 32.6389 98.3379 34.3649C98.6162 36.0909 99.2495 37.7404 100.198 39.209C101.146 40.6776 102.388 41.9335 103.846 42.8972C105.304 43.8609 106.946 44.5115 108.669 44.8078C109.103 44.9807 109.566 45.0693 110.033 45.069H112.282" stroke="#808285" stroke-width="5" stroke-miterlimit="10" stroke-linecap="round"/>
<path d="M161.112 27.4088C161.112 30.1201 160.036 32.7206 158.12 34.6386C156.205 36.5566 153.606 37.6353 150.896 37.6375" stroke="#808285" stroke-width="5" stroke-linecap="round" stroke-linejoin="round"/>
<path d="M40.3328 138.442H90.7635C92.3441 138.44 93.8725 137.876 95.0755 136.85C98.7237 136.291 102.026 134.375 104.322 131.484C106.618 128.593 107.737 124.941 107.456 121.259C107.175 117.578 105.514 114.138 102.806 111.63C100.098 109.121 96.5428 107.728 92.8521 107.731C92.2666 107.733 91.6816 107.77 91.1003 107.84C91.428 105.891 91.5942 103.919 91.5972 101.942C91.5975 95.9473 90.0648 90.0517 87.1449 84.8165C84.2249 79.5813 80.0149 75.1803 74.9151 72.0323C69.8152 68.8842 63.9952 67.0937 58.0085 66.831C52.0218 66.5683 46.0675 67.8422 40.7117 70.5314" stroke="#6D6E71" stroke-width="5" stroke-miterlimit="10" stroke-linecap="round"/>
<path d="M31.1781 138.434H33.6373" stroke="#6D6E71" stroke-width="5" stroke-miterlimit="10" stroke-linecap="round"/>
<path d="M26.3271 83.8861C23.4819 88.6441 21.805 94.0091 21.4339 99.541H21.3413C16.7202 99.5408 12.2534 101.205 8.75798 104.229C5.26256 107.253 2.97211 111.435 2.30557 116.01C1.63902 120.584 2.64094 125.246 5.12805 129.143C7.61517 133.039 11.4213 135.91 15.8501 137.229C16.9698 138.017 18.3049 138.441 19.6737 138.442H25.089" stroke="#6D6E71" stroke-width="5" stroke-miterlimit="10" stroke-linecap="round"/>
<path d="M34.37 74.6179C32.8202 75.8778 31.3805 77.2674 30.0664 78.7717" stroke="#6D6E71" stroke-width="5" stroke-miterlimit="10" stroke-linecap="round"/>
<path d="M86.3588 131.011C88.9343 131.011 91.4046 129.989 93.2281 128.17C95.0516 126.35 96.0794 123.881 96.0861 121.305" stroke="#6D6E71" stroke-width="5" stroke-linecap="round" stroke-linejoin="round"/>
<path d="M32.1635 91.7641C32.1635 90.0572 32.4996 88.3671 33.1528 86.7902C33.806 85.2133 34.7633 83.7807 35.9701 82.5741C37.1769 81.3676 38.6096 80.4107 40.1862 79.7583C41.7628 79.1059 43.4524 78.7706 45.1585 78.7717" stroke="#6D6E71" stroke-width="5" stroke-linecap="round" stroke-linejoin="round"/>
<path d="M268.618 149.109L269.579 149.151L268.618 149.109Z" fill="#51311D"/>
<path d="M170.149 241.48C170.328 240.547 170.826 239.705 171.557 239.098C172.288 238.491 173.208 238.156 174.158 238.152H181.636C182.513 238.156 183.364 238.442 184.066 238.967C184.768 239.491 185.283 240.228 185.536 241.067H192.888V242.853V236.627C162.392 230.603 139.594 207.255 139.215 179.248C137.728 174.67 136.828 169.923 136.537 165.118C136.486 165.506 136.469 165.716 136.469 165.716C136.469 165.716 126.784 142.268 144.891 115.162C154.358 100.99 165.567 95.6568 172.928 93.6515C171.555 88.0315 172.684 84.695 172.684 84.695C172.684 84.695 177.737 76.3451 189.46 70.6831C154.728 77.5669 128.334 108.388 128.334 145.073V190.016C128.347 201.279 130.869 212.397 135.718 222.562C140.566 232.726 147.619 241.682 156.362 248.777C160.094 244.978 164.91 242.429 170.149 241.48Z" fill="#51311D"/>
<path d="M281.319 161.647C281.333 168.707 280.039 175.709 277.504 182.298C275.609 208.654 253.813 230.367 224.892 236.442V241.067H230.787C231.039 240.228 231.554 239.491 232.256 238.967C232.958 238.442 233.81 238.156 234.686 238.152H242.165C243.075 238.157 243.958 238.465 244.673 239.029C245.388 239.592 245.896 240.377 246.115 241.261C251.92 241.958 257.316 244.608 261.418 248.777C270.158 241.679 277.208 232.723 282.056 222.559C286.904 212.395 289.429 201.278 289.446 190.016V147.888C286.358 148.491 283.231 148.874 280.089 149.033C280.88 153.192 281.291 157.414 281.319 161.647Z" fill="#51311D"/>
<path d="M266.942 149.034L267.953 149.092L266.942 149.034Z" fill="#51311D"/>
<g style="mix-blend-mode:multiply" opacity="0.2">
<path d="M266.942 149.034L267.953 149.092L266.942 149.034Z" fill="#51311D"/>
</g>
<path d="M224.833 228.901C224.833 229.035 224.833 229.162 224.833 229.297V236.442C253.754 230.367 275.55 208.637 277.445 182.298C268.029 206.859 243.033 222.413 224.833 228.901Z" fill="#51311D"/>
<g style="mix-blend-mode:multiply" opacity="0.2">
<path d="M224.833 228.901C224.833 229.035 224.833 229.162 224.833 229.297V236.442C253.754 230.367 275.55 208.637 277.445 182.298C268.029 206.859 243.033 222.413 224.833 228.901Z" fill="#51311D"/>
</g>
<path d="M262.639 148.705C263.978 148.831 265.283 148.932 266.547 149.008C265.317 148.932 263.978 148.831 262.639 148.705Z" fill="#51311D"/>
<g style="mix-blend-mode:multiply" opacity="0.2">
<path d="M262.639 148.705C263.978 148.831 265.283 148.932 266.547 149.008C265.317 148.932 263.978 148.831 262.639 148.705Z" fill="#51311D"/>
</g>
<path d="M192.888 228.901C173.956 222.16 147.671 205.57 139.198 179.248C139.577 207.255 162.375 230.645 192.871 236.627V229.297C192.888 229.153 192.888 229.035 192.888 228.901Z" fill="#51311D"/>
<g style="mix-blend-mode:multiply" opacity="0.2">
<path d="M192.888 228.901C173.956 222.16 147.671 205.57 139.198 179.248C139.577 207.255 162.375 230.645 192.871 236.627V229.297C192.888 229.153 192.888 229.035 192.888 228.901Z" fill="#51311D"/>
</g>
<path d="M195.634 122.375C199.888 125.507 204.313 128.398 208.89 131.036C225.314 140.772 243.662 146.81 262.656 148.73C243.677 146.801 225.345 140.763 208.932 131.036C204.368 128.399 199.957 125.508 195.718 122.375C193.06 121.906 190.365 121.675 187.667 121.684C190.337 121.677 193.004 121.908 195.634 122.375Z" fill="#51311D"/>
<g style="mix-blend-mode:multiply" opacity="0.2">
<path d="M195.634 122.375C199.888 125.507 204.313 128.398 208.89 131.036C225.314 140.772 243.662 146.81 262.656 148.73C243.677 146.801 225.345 140.763 208.932 131.036C204.368 128.399 199.957 125.508 195.718 122.375C193.06 121.906 190.365 121.675 187.667 121.684C190.337 121.677 193.004 121.908 195.634 122.375Z" fill="#51311D"/>
</g>
<path d="M203.272 253.226H214.431C215.8 253.234 217.156 252.973 218.423 252.456C219.69 251.939 220.843 251.177 221.815 250.213C222.787 249.249 223.559 248.103 224.087 246.84C224.615 245.577 224.888 244.222 224.892 242.854V241.067V229.271C224.892 229.137 224.892 229.01 224.892 228.875C243.091 222.371 268.088 206.834 277.529 182.273C280.053 175.69 281.338 168.697 281.319 161.647C281.312 157.407 280.92 153.177 280.148 149.008C278.034 149.143 275.609 149.219 272.897 149.202H272.543H271.414H270.884L269.612 149.16L268.652 149.118H267.987L266.976 149.059H266.58C265.317 148.983 264.054 148.882 262.672 148.755C243.678 146.836 225.331 140.797 208.907 131.062C204.342 128.423 199.927 125.531 195.684 122.4C193.043 121.931 190.366 121.7 187.683 121.709H187.549C176.485 121.727 165.76 125.529 157.154 132.485C139.788 146.379 136.992 161.975 136.587 165.169C136.87 169.963 137.758 174.702 139.232 179.273C147.654 205.561 173.939 222.126 192.888 228.901C192.888 229.035 192.888 229.162 192.888 229.297V242.854C192.895 245.605 193.992 248.242 195.938 250.186C197.884 252.13 200.522 253.223 203.272 253.226ZM235.958 171.859C235.96 170.714 236.415 169.618 237.223 168.808C238.031 167.998 239.126 167.541 240.27 167.536H241.954C243.099 167.541 244.195 167.998 245.005 168.807C245.814 169.617 246.27 170.714 246.275 171.859V181.338C246.27 182.482 245.814 183.578 245.004 184.386C244.195 185.194 243.098 185.649 241.954 185.652H240.27C239.128 185.647 238.034 185.191 237.226 184.383C236.418 183.575 235.962 182.48 235.958 181.338V171.859ZM241.112 191.71C248.692 191.71 254.815 195.029 254.815 199.133C254.815 203.236 248.684 206.564 241.112 206.564C233.541 206.564 227.418 203.244 227.418 199.141C227.418 195.038 233.549 191.718 241.112 191.718V191.71ZM175.665 141.383C172.617 141.338 169.628 142.219 167.092 143.911C167.161 141.681 168.096 139.567 169.697 138.014C171.298 136.462 173.44 135.594 175.669 135.594C177.899 135.594 180.041 136.462 181.642 138.014C183.243 139.567 184.177 141.681 184.247 143.911C181.707 142.222 178.715 141.344 175.665 141.391V141.383ZM180.828 171.859V181.338C180.823 182.482 180.367 183.578 179.557 184.386C178.747 185.194 177.651 185.649 176.507 185.652H174.823C173.681 185.647 172.587 185.191 171.779 184.383C170.971 183.575 170.515 182.48 170.511 181.338V171.859C170.513 170.714 170.968 169.618 171.776 168.808C172.584 167.998 173.679 167.541 174.823 167.536H176.507C177.652 167.541 178.748 167.998 179.558 168.807C180.367 169.617 180.823 170.714 180.828 171.859ZM176.684 204.93C169.104 204.93 162.99 201.601 162.99 197.498C162.99 193.395 169.121 190.075 176.684 190.075C184.247 190.075 190.362 193.412 190.362 197.506C190.362 201.601 184.256 204.938 176.684 204.938V204.93ZM208.393 203.994C216.402 203.994 222.896 204.095 222.896 209.05C222.896 211.679 221.043 214.029 218.112 215.655C215.098 217.179 211.769 217.972 208.393 217.972C205.017 217.972 201.688 217.179 198.674 215.655C195.743 214.029 193.882 211.679 193.882 209.05C193.882 204.104 200.384 204.003 208.393 204.003V203.994Z" fill="#FCDCA4"/>
<path d="M176.507 167.545H174.831C172.445 167.545 170.511 169.48 170.511 171.867V181.338C170.511 183.725 172.445 185.66 174.831 185.66H176.507C178.894 185.66 180.828 183.725 180.828 181.338V171.867C180.828 169.48 178.894 167.545 176.507 167.545Z" fill="#342112"/>
<path d="M241.955 167.545H240.279C237.892 167.545 235.958 169.48 235.958 171.867V181.338C235.958 183.725 237.892 185.66 240.279 185.66H241.955C244.341 185.66 246.275 183.725 246.275 181.338V171.867C246.275 169.48 244.341 167.545 241.955 167.545Z" fill="#342112"/>
<path d="M198.674 215.672C199.874 214.26 201.367 213.126 203.049 212.348C204.73 211.57 206.561 211.167 208.414 211.167C210.267 211.167 212.098 211.57 213.779 212.348C215.461 213.126 216.954 214.26 218.154 215.672C221.085 214.046 222.938 211.695 222.938 209.066C222.938 204.146 216.444 204.011 208.435 204.011C200.426 204.011 193.924 204.112 193.924 209.066C193.882 211.653 195.743 213.987 198.674 215.672Z" fill="#EF4354"/>
<path d="M175.665 135.628C173.446 135.631 171.313 136.493 169.715 138.034C168.117 139.575 167.177 141.675 167.092 143.894C169.656 142.265 172.631 141.399 175.669 141.399C178.707 141.399 181.683 142.265 184.247 143.894C184.162 141.673 183.221 139.572 181.621 138.031C180.021 136.49 177.886 135.629 175.665 135.628Z" fill="#342112"/>
<path d="M172.675 84.695C172.675 84.695 171.547 88.0653 172.92 93.6515C165.559 95.6568 154.349 100.99 144.883 115.162C126.776 142.293 136.461 165.716 136.461 165.716C136.461 165.716 136.461 165.506 136.528 165.118C136.933 161.925 139.729 146.329 157.095 132.435C165.701 125.479 176.426 121.676 187.49 121.658H187.624C190.323 121.649 193.018 121.881 195.676 122.349C199.914 125.491 204.326 128.391 208.89 131.036C225.303 140.763 243.635 146.801 262.613 148.73C263.953 148.857 265.258 148.958 266.521 149.034H266.917L267.928 149.092H268.593L269.553 149.135L270.825 149.177H271.355H272.484H272.897C275.609 149.177 278.034 149.118 280.148 148.983C283.29 148.823 286.417 148.44 289.505 147.837C289.505 147.837 295.678 93.9127 249.728 74.1123C221.135 61.794 201.723 64.7598 189.494 70.6325C177.729 76.3451 172.675 84.695 172.675 84.695Z" fill="#51311D"/>
<path d="M170.09 264.179V259.798H149.936C150.439 258.046 151.122 256.352 151.974 254.742H170.081V251.06H154.374C155.854 249.142 157.594 247.44 159.546 246.005H170.09V242.188C170.093 241.933 170.119 241.68 170.166 241.43C164.921 242.375 160.098 244.924 156.362 248.726C151.626 253.495 148.965 259.942 148.959 266.664V266.791C148.957 265.902 149.002 265.013 149.094 264.128L170.09 264.179Z" fill="#5EC1A1"/>
<path d="M248.406 273.296C248.406 273.498 248.406 273.692 248.406 273.885H268.88V269.217H247.521C248.104 270.498 248.406 271.889 248.406 273.296Z" fill="#5EC1A1"/>
<path d="M167.092 298.345H148.959V302.069C149.726 302.398 150.5 302.71 151.284 303.021H167.092V298.345Z" fill="#5EC1A1"/>
<path d="M167.959 273.296C167.95 271.892 168.237 270.502 168.801 269.217H148.926V273.885H167.951C167.976 273.692 167.959 273.498 167.959 273.296Z" fill="#5EC1A1"/>
<path d="M186.993 269.217C187.178 269.628 187.335 270.05 187.464 270.481H228.9C229.026 270.049 229.184 269.626 229.372 269.217H186.993Z" fill="#5EC1A1"/>
<path d="M167.083 278.924H148.951V283.6H167.083V278.924Z" fill="#5EC1A1"/>
<path d="M167.083 288.63H148.951V293.306H167.083V288.63Z" fill="#5EC1A1"/>
<path d="M268.837 288.63H249.686V293.306H268.837V288.63Z" fill="#5EC1A1"/>
<path d="M249.694 298.345V303.021H265.502C266.622 302.575 267.734 302.111 268.871 301.631V298.345H249.694Z" fill="#5EC1A1"/>
<path d="M268.837 278.924H249.686V283.6H268.837V278.924Z" fill="#5EC1A1"/>
<path d="M230.619 259.798H185.738V264.179H230.619V259.798Z" fill="#5EC1A1"/>
<path d="M185.738 246.055H193.318C193.964 248.059 195.2 249.821 196.863 251.111H185.738V254.776H230.619V251.06H220.815C222.479 249.772 223.713 248.009 224.353 246.005H230.619V242.188C230.628 241.79 230.693 241.396 230.812 241.017H224.892V242.803C224.888 244.169 224.616 245.521 224.09 246.782C223.564 248.043 222.795 249.187 221.827 250.151C220.859 251.114 219.71 251.877 218.447 252.396C217.184 252.915 215.831 253.179 214.465 253.175H203.272C200.531 253.173 197.901 252.087 195.956 250.154C194.011 248.22 192.908 245.596 192.888 242.854V241.067H185.586C185.703 241.447 185.765 241.841 185.772 242.238L185.738 246.055Z" fill="#5EC1A1"/>
<path d="M246.14 241.261C246.224 241.58 246.269 241.908 246.275 242.238V246.055H258.259C260.209 247.493 261.949 249.194 263.43 251.111H246.275V254.776H265.814C266.67 256.384 267.353 258.079 267.852 259.831H246.275V264.213H268.686C268.77 265.055 268.82 265.974 268.82 266.875V266.749C268.815 260.026 266.154 253.579 261.418 248.81C257.328 244.634 251.941 241.972 246.14 241.261Z" fill="#5EC1A1"/>
<path d="M246.275 264.179V267.153C246.775 267.787 247.193 268.48 247.521 269.217H268.846V266.841C268.846 265.94 268.795 265.055 268.711 264.179H246.275Z" fill="white"/>
<path d="M185.738 264.179V267.153C186.237 267.789 186.658 268.482 186.993 269.217H229.372C229.706 268.483 230.125 267.791 230.619 267.153V264.179H185.738Z" fill="white"/>
<path d="M170.09 267.153V264.179H149.094C149.002 265.063 148.957 265.952 148.959 266.841V269.217H168.835C169.169 268.482 169.591 267.789 170.09 267.153Z" fill="white"/>
<path d="M246.275 259.798H267.844C267.345 258.045 266.662 256.35 265.805 254.742H246.266L246.275 259.798Z" fill="white"/>
<path d="M170.09 254.759H151.983C151.13 256.369 150.447 258.063 149.945 259.814H170.09V254.759Z" fill="white"/>
<path d="M230.619 254.759H185.738V259.798H230.619V254.759Z" fill="white"/>
<path d="M159.546 246.055C157.594 247.49 155.854 249.192 154.375 251.111H170.09V246.055H159.546Z" fill="white"/>
<path d="M224.353 246.055C223.713 248.06 222.479 249.823 220.815 251.111H230.619V246.055H224.353Z" fill="white"/>
<path d="M263.43 251.06C261.949 249.144 260.209 247.442 258.259 246.005H246.275V251.06H263.43Z" fill="white"/>
<path d="M196.897 251.06C195.233 249.771 193.998 248.009 193.351 246.005H185.772V251.06H196.897Z" fill="white"/>
<path d="M248.372 273.978C248.372 274.121 248.372 274.256 248.372 274.399C249.225 275.735 249.678 277.288 249.677 278.873V278.924H268.829V273.868H248.372V273.978Z" fill="white"/>
<path d="M167.092 278.865C167.083 277.573 167.371 276.295 167.934 275.132C167.934 274.989 167.934 274.854 167.934 274.711C167.921 274.464 167.921 274.217 167.934 273.97C167.938 273.939 167.938 273.908 167.934 273.877H148.959V278.932H167.092V278.865Z" fill="white"/>
<path d="M268.837 283.592H249.686V288.63H268.837V283.592Z" fill="white"/>
<path d="M167.083 283.592H148.951V288.63H167.083V283.592Z" fill="white"/>
<path d="M268.837 293.306H249.686V298.345H268.837V293.306Z" fill="white"/>
<path d="M167.083 293.306H148.951V298.345H167.083V293.306Z" fill="white"/>
<path d="M249.694 308.06H250.823C255.826 306.622 260.719 304.937 265.502 303.004H249.694V308.06Z" fill="white"/>
<path d="M167.092 303.021H151.284C156.059 304.934 160.961 306.619 165.955 308.077H167.092V303.021Z" fill="white"/>
<path d="M177.914 263.336C179.423 263.334 180.912 263.676 182.268 264.338C183.624 264.999 184.811 265.962 185.738 267.153V242.238C185.732 241.841 185.669 241.447 185.553 241.067C185.3 240.228 184.785 239.491 184.083 238.967C183.381 238.442 182.53 238.156 181.653 238.152H174.175C173.224 238.156 172.305 238.491 171.574 239.098C170.843 239.705 170.345 240.547 170.166 241.48C170.119 241.73 170.093 241.984 170.09 242.238V267.153C171.018 265.963 172.205 265.001 173.561 264.34C174.917 263.678 176.405 263.335 177.914 263.336Z" fill="#3C4CA0"/>
<path d="M230.619 246.055V267.119C231.548 265.93 232.736 264.969 234.092 264.307C235.449 263.646 236.938 263.302 238.447 263.302C239.956 263.302 241.445 263.646 242.801 264.307C244.157 264.969 245.345 265.93 246.275 267.119V242.238C246.269 241.908 246.224 241.58 246.14 241.261C245.921 240.377 245.414 239.592 244.698 239.029C243.983 238.465 243.101 238.157 242.19 238.152H234.712C233.835 238.156 232.984 238.442 232.282 238.967C231.58 239.491 231.065 240.228 230.812 241.067C230.693 241.447 230.628 241.841 230.619 242.238V246.055Z" fill="#3C4CA0"/>
<path d="M249.694 303.021V278.865C249.695 277.279 249.242 275.727 248.389 274.391C248.389 274.5 248.389 274.601 248.389 274.711C248.428 276.044 248.199 277.371 247.716 278.613C247.233 279.856 246.505 280.989 245.577 281.946C244.648 282.902 243.537 283.662 242.309 284.182C241.082 284.701 239.763 284.968 238.43 284.968C237.097 284.968 235.778 284.701 234.55 284.182C233.323 283.662 232.212 282.902 231.283 281.946C230.355 280.989 229.627 279.856 229.144 278.613C228.661 277.371 228.432 276.044 228.471 274.711C228.471 274.467 228.471 274.214 228.471 273.97C228.471 273.725 228.471 273.523 228.471 273.287C228.474 272.334 228.613 271.386 228.884 270.473H187.448C187.715 271.387 187.852 272.335 187.852 273.287C187.852 273.523 187.852 273.742 187.852 273.97C187.864 274.217 187.864 274.464 187.852 274.711C187.908 277.35 186.913 279.903 185.087 281.809C183.262 283.715 180.754 284.817 178.116 284.872C175.478 284.928 172.926 283.933 171.021 282.107C169.116 280.28 168.015 277.771 167.959 275.132C167.396 276.295 167.108 277.573 167.117 278.865V308.355C194.14 315.859 222.696 315.859 249.719 308.355V303.004L249.694 303.021Z" fill="#3C4CA0"/>
<path d="M185.738 267.153C184.809 265.964 183.622 265.002 182.266 264.341C180.911 263.68 179.422 263.336 177.914 263.336C176.406 263.336 174.917 263.68 173.562 264.341C172.206 265.002 171.019 265.964 170.09 267.153C169.591 267.789 169.169 268.482 168.835 269.217C168.271 270.502 167.984 271.892 167.993 273.296C167.993 273.498 167.993 273.692 167.993 273.885C167.997 273.916 167.997 273.947 167.993 273.978C167.993 273.708 168.027 273.428 168.094 273.135C168.464 275.476 169.657 277.608 171.458 279.147C173.259 280.686 175.55 281.532 177.918 281.532C180.287 281.532 182.578 280.686 184.379 279.147C186.18 277.608 187.372 275.476 187.742 273.135C187.784 273.405 187.818 273.675 187.835 273.978C187.835 273.751 187.835 273.531 187.835 273.296C187.835 272.343 187.699 271.395 187.431 270.481C187.301 270.05 187.144 269.628 186.959 269.217C186.635 268.483 186.225 267.79 185.738 267.153Z" fill="#27AAE1"/>
<path d="M167.993 273.978C167.98 274.225 167.98 274.472 167.993 274.719C167.993 274.863 167.993 274.997 167.993 275.141L168.111 274.888C168.052 274.593 168.01 274.29 167.993 273.978Z" fill="white"/>
<g style="mix-blend-mode:multiply" opacity="0.1">
<path d="M167.993 273.978C167.98 274.225 167.98 274.472 167.993 274.719C167.993 274.863 167.993 274.997 167.993 275.141L168.111 274.888C168.052 274.593 168.01 274.29 167.993 273.978Z" fill="black"/>
</g>
<path d="M177.914 283.255C175.551 283.253 173.265 282.411 171.466 280.878C169.667 279.345 168.472 277.222 168.094 274.888L167.976 275.141C168.032 277.78 169.133 280.289 171.038 282.115C172.943 283.942 175.495 284.937 178.133 284.881C180.771 284.825 183.278 283.723 185.104 281.817C186.93 279.912 187.924 277.359 187.869 274.719C187.881 274.472 187.881 274.225 187.869 273.978C187.697 276.5 186.573 278.862 184.724 280.585C182.876 282.308 180.441 283.263 177.914 283.255Z" fill="#3C4CA0"/>
<g style="mix-blend-mode:multiply" opacity="0.1">
<path d="M177.914 283.255C175.551 283.253 173.265 282.411 171.466 280.878C169.667 279.345 168.472 277.222 168.094 274.888L167.976 275.141C168.032 277.78 169.133 280.289 171.038 282.115C172.943 283.942 175.495 284.937 178.133 284.881C180.771 284.825 183.278 283.723 185.104 281.817C186.93 279.912 187.924 277.359 187.869 274.719C187.881 274.472 187.881 274.225 187.869 273.978C187.697 276.5 186.573 278.862 184.724 280.585C182.876 282.308 180.441 283.263 177.914 283.255Z" fill="black"/>
</g>
<path d="M187.742 273.169C187.372 275.51 186.18 277.641 184.379 279.181C182.578 280.72 180.287 281.565 177.918 281.565C175.55 281.565 173.259 280.72 171.458 279.181C169.657 277.641 168.464 275.51 168.094 273.169C168.049 273.439 168.015 273.72 167.993 274.012C167.993 274.323 168.052 274.627 168.094 274.922C168.487 277.333 169.753 279.515 171.651 281.053C173.549 282.59 175.946 283.375 178.385 283.259C180.825 283.142 183.136 282.132 184.878 280.42C186.621 278.709 187.673 276.416 187.835 273.978C187.835 273.708 187.785 273.439 187.742 273.169Z" fill="#27AAE1"/>
<g style="mix-blend-mode:multiply" opacity="0.1">
<path d="M187.742 273.169C187.372 275.51 186.18 277.641 184.379 279.181C182.578 280.72 180.287 281.565 177.918 281.565C175.55 281.565 173.259 280.72 171.458 279.181C169.657 277.641 168.464 275.51 168.094 273.169C168.049 273.439 168.015 273.72 167.993 274.012C167.993 274.323 168.052 274.627 168.094 274.922C168.487 277.333 169.753 279.515 171.651 281.053C173.549 282.59 175.946 283.375 178.385 283.259C180.825 283.142 183.136 282.132 184.878 280.42C186.621 278.709 187.673 276.416 187.835 273.978C187.835 273.708 187.785 273.439 187.742 273.169Z" fill="black"/>
</g>
<path d="M228.623 273.169C228.993 275.51 230.185 277.641 231.986 279.18C233.787 280.72 236.078 281.565 238.447 281.565C240.815 281.565 243.106 280.72 244.907 279.18C246.708 277.641 247.901 275.51 248.271 273.169C248.316 273.439 248.35 273.72 248.372 274.012V273.919C248.372 273.725 248.372 273.531 248.372 273.329C248.372 271.922 248.071 270.532 247.488 269.251C247.16 268.514 246.741 267.82 246.241 267.187C245.312 265.998 244.124 265.036 242.767 264.375C241.411 263.713 239.922 263.369 238.413 263.369C236.904 263.369 235.415 263.713 234.059 264.375C232.702 265.036 231.514 265.998 230.585 267.187C230.091 267.824 229.673 268.517 229.338 269.251C229.15 269.66 228.992 270.083 228.867 270.515C228.596 271.429 228.457 272.376 228.454 273.329C228.454 273.565 228.454 273.784 228.454 274.012C228.521 273.72 228.578 273.439 228.623 273.169Z" fill="#27AAE1"/>
<path d="M248.347 274.332C248.349 274.354 248.349 274.377 248.347 274.399C248.347 274.256 248.347 274.121 248.347 273.978C248.364 274.096 248.364 274.214 248.347 274.332Z" fill="white"/>
<g style="mix-blend-mode:multiply" opacity="0.1">
<path d="M248.347 274.332C248.349 274.354 248.349 274.377 248.347 274.399C248.347 274.256 248.347 274.121 248.347 273.978C248.364 274.096 248.364 274.214 248.347 274.332Z" fill="black"/>
</g>
<path d="M238.451 283.255C235.931 283.254 233.504 282.298 231.661 280.577C229.818 278.857 228.696 276.502 228.521 273.986C228.521 274.231 228.521 274.484 228.521 274.728C228.483 276.061 228.712 277.388 229.195 278.63C229.678 279.873 230.405 281.006 231.334 281.963C232.262 282.919 233.373 283.679 234.601 284.199C235.828 284.718 237.148 284.985 238.48 284.985C239.813 284.985 241.132 284.718 242.36 284.199C243.587 283.679 244.698 282.919 245.627 281.963C246.556 281.006 247.283 279.873 247.766 278.63C248.249 277.388 248.478 276.061 248.439 274.728C248.439 274.618 248.439 274.517 248.439 274.408C248.442 274.385 248.442 274.363 248.439 274.34C248.182 276.803 247.015 279.081 245.168 280.73C243.321 282.378 240.926 283.279 238.451 283.255Z" fill="#3C4CA0"/>
<g style="mix-blend-mode:multiply" opacity="0.1">
<path d="M238.451 283.255C235.931 283.254 233.504 282.298 231.661 280.577C229.818 278.857 228.696 276.502 228.521 273.986C228.521 274.231 228.521 274.484 228.521 274.728C228.483 276.061 228.712 277.388 229.195 278.63C229.678 279.873 230.405 281.006 231.334 281.963C232.262 282.919 233.373 283.679 234.601 284.199C235.828 284.718 237.148 284.985 238.48 284.985C239.813 284.985 241.132 284.718 242.36 284.199C243.587 283.679 244.698 282.919 245.627 281.963C246.556 281.006 247.283 279.873 247.766 278.63C248.249 277.388 248.478 276.061 248.439 274.728C248.439 274.618 248.439 274.517 248.439 274.408C248.442 274.385 248.442 274.363 248.439 274.34C248.182 276.803 247.015 279.081 245.168 280.73C243.321 282.378 240.926 283.279 238.451 283.255Z" fill="black"/>
</g>
<path d="M238.451 283.255C240.911 283.255 243.285 282.344 245.113 280.696C246.94 279.048 248.093 276.78 248.347 274.332C248.347 274.214 248.347 274.096 248.347 273.978C248.347 273.708 248.313 273.427 248.246 273.135C247.876 275.476 246.683 277.608 244.882 279.147C243.081 280.686 240.79 281.532 238.421 281.532C236.053 281.532 233.762 280.686 231.961 279.147C230.16 277.608 228.967 275.476 228.597 273.135C228.558 273.405 228.524 273.686 228.496 273.978C228.669 276.499 229.794 278.86 231.642 280.583C233.491 282.306 235.925 283.261 238.451 283.255Z" fill="#27AAE1"/>
<g style="mix-blend-mode:multiply" opacity="0.1">
<path d="M238.451 283.255C240.911 283.255 243.285 282.344 245.113 280.696C246.94 279.048 248.093 276.78 248.347 274.332C248.347 274.214 248.347 274.096 248.347 273.978C248.347 273.708 248.313 273.427 248.246 273.135C247.876 275.476 246.683 277.608 244.882 279.147C243.081 280.686 240.79 281.532 238.421 281.532C236.053 281.532 233.762 280.686 231.961 279.147C230.16 277.608 228.967 275.476 228.597 273.135C228.558 273.405 228.524 273.686 228.496 273.978C228.669 276.499 229.794 278.86 231.642 280.583C233.491 282.306 235.925 283.261 238.451 283.255Z" fill="black"/>
</g>
<path d="M176.684 204.929C184.252 204.929 190.387 201.606 190.387 197.506C190.387 193.407 184.252 190.083 176.684 190.083C169.117 190.083 162.982 193.407 162.982 197.506C162.982 201.606 169.117 204.929 176.684 204.929Z" fill="#FCDCA4"/>
<path opacity="0.3" d="M176.684 204.929C184.252 204.929 190.387 201.606 190.387 197.506C190.387 193.407 184.252 190.083 176.684 190.083C169.117 190.083 162.982 193.407 162.982 197.506C162.982 201.606 169.117 204.929 176.684 204.929Z" fill="#EF415A"/>
<path d="M241.112 206.564C248.68 206.564 254.815 203.241 254.815 199.141C254.815 195.041 248.68 191.718 241.112 191.718C233.545 191.718 227.41 195.041 227.41 199.141C227.41 203.241 233.545 206.564 241.112 206.564Z" fill="#FCDCA4"/>
<path opacity="0.3" d="M241.112 206.564C248.68 206.564 254.815 203.241 254.815 199.141C254.815 195.041 248.68 191.718 241.112 191.718C233.545 191.718 227.41 195.041 227.41 199.141C227.41 203.241 233.545 206.564 241.112 206.564Z" fill="#EF415A"/>
<path d="M208.393 211.148C206.535 211.111 204.694 211.499 203.01 212.283C201.325 213.068 199.842 214.227 198.674 215.672C201.693 217.202 205.03 218 208.414 218C211.798 218 215.135 217.202 218.154 215.672C216.981 214.222 215.491 213.059 213.799 212.275C212.107 211.491 210.258 211.105 208.393 211.148Z" fill="#D6203B"/>
<path opacity="0.3" d="M176.684 154.788C182.975 154.787 189.045 157.108 193.731 161.305C198.418 165.503 201.392 171.283 202.085 177.538C202.182 176.614 202.233 175.686 202.237 174.757C202.247 171.277 201.546 167.83 200.178 164.63C198.81 161.43 196.803 158.543 194.281 156.146C191.758 153.749 188.773 151.893 185.508 150.691C182.242 149.489 178.766 148.967 175.293 149.157C171.819 149.346 168.42 150.244 165.305 151.794C162.19 153.344 159.424 155.514 157.177 158.171C154.93 160.828 153.249 163.917 152.237 167.247C151.225 170.577 150.903 174.079 151.292 177.538C151.981 171.283 154.953 165.502 159.639 161.304C164.325 157.106 170.394 154.786 176.684 154.788Z" fill="#414042"/>
<path opacity="0.1" d="M176.684 199.385C182.974 199.384 189.043 197.063 193.729 192.866C198.416 188.669 201.391 182.89 202.085 176.636C202.183 177.56 202.233 178.488 202.237 179.417C202.115 186.115 199.37 192.498 194.592 197.192C189.814 201.886 183.385 204.516 176.689 204.516C169.992 204.516 163.563 201.886 158.785 197.192C154.007 192.498 151.262 186.115 151.141 179.417C151.14 178.488 151.19 177.559 151.292 176.636C151.983 182.89 154.955 188.67 159.641 192.868C164.326 197.065 170.395 199.386 176.684 199.385Z" fill="#414042"/>
<path opacity="0.1" d="M241.112 199.385C247.402 199.384 253.471 197.063 258.157 192.866C262.844 188.669 265.819 182.89 266.513 176.636C266.611 177.56 266.661 178.488 266.665 179.417C266.543 186.115 263.798 192.498 259.02 197.192C254.242 201.886 247.813 204.516 241.117 204.516C234.42 204.516 227.991 201.886 223.213 197.192C218.435 192.498 215.69 186.115 215.568 179.417C215.568 178.488 215.618 177.559 215.72 176.636C216.411 182.89 219.383 188.67 224.069 192.868C228.754 197.065 234.823 199.386 241.112 199.385Z" fill="#414042"/>
<path opacity="0.3" d="M241.112 154.788C247.403 154.787 253.472 157.108 258.159 161.305C262.846 165.503 265.82 171.283 266.513 177.538C266.61 176.614 266.661 175.686 266.664 174.757C266.675 171.277 265.974 167.83 264.606 164.63C263.238 161.43 261.231 158.543 258.709 156.146C256.186 153.749 253.201 151.893 249.936 150.691C246.67 149.489 243.194 148.967 239.72 149.157C236.247 149.346 232.848 150.244 229.733 151.794C226.618 153.344 223.852 155.514 221.605 158.171C219.358 160.828 217.677 163.917 216.665 167.247C215.653 170.577 215.331 174.079 215.72 177.538C216.409 171.283 219.381 165.502 224.067 161.304C228.753 157.106 234.822 154.786 241.112 154.788Z" fill="#414042"/>
<path d="M176.684 199.133C190.792 199.133 202.228 187.691 202.228 173.578C202.228 159.464 190.792 148.022 176.684 148.022C162.577 148.022 151.141 159.464 151.141 173.578C151.141 187.691 162.577 199.133 176.684 199.133Z" stroke="black" stroke-width="7" stroke-miterlimit="10"/>
<path d="M241.112 199.133C255.22 199.133 266.656 187.691 266.656 173.578C266.656 159.464 255.22 148.022 241.112 148.022C227.005 148.022 215.568 159.464 215.568 173.578C215.568 187.691 227.005 199.133 241.112 199.133Z" stroke="black" stroke-width="7" stroke-miterlimit="10"/>
<path d="M202.228 173.578H215.569" stroke="black" stroke-width="7" stroke-miterlimit="10"/>
<path d="M149.313 171.227L136.469 165.742" stroke="#231F20" stroke-width="8" stroke-linecap="round" stroke-linejoin="round"/>
<path d="M268.273 172.069L281.117 166.584" stroke="#231F20" stroke-width="8" stroke-linecap="round" stroke-linejoin="round"/>
</g>
<defs>
<clipPath id="clip0">
<rect width="430" height="314" fill="white"/>
</clipPath>
</defs>
</svg>
