<?xml version="1.0" standalone="no"?>
<!DOCTYPE svg PUBLIC "-//W3C//DTD SVG 20010904//EN"
 "http://www.w3.org/TR/2001/REC-SVG-20010904/DTD/svg10.dtd">
<svg version="1.0" xmlns="http://www.w3.org/2000/svg"
 width="260.000000pt" height="260.000000pt" viewBox="0 0 260.000000 260.000000"
 preserveAspectRatio="xMidYMid meet">
<metadata>
Created by potrace 1.11, written by Peter Selinger 2001-2013
</metadata>
<g transform="translate(0.000000,260.000000) scale(0.100000,-0.100000)"
fill="#000000" stroke="none">
<path d="M1869 2483 c-201 -52 -342 -265 -384 -581 l-7 -53 -31 7 c-17 3 -74
7 -127 8 -84 2 -139 -4 -266 -28 l-31 -6 -12 83 c-34 221 -96 363 -204 467
-84 80 -163 113 -260 109 -69 -2 -117 -22 -161 -65 -28 -28 -63 -93 -72 -137
-11 -51 -3 -157 17 -217 43 -131 83 -189 237 -350 l91 -95 -22 -20 c-35 -32
-121 -136 -148 -180 -45 -72 -82 -161 -108 -260 l-11 -41 -121 1 c-132 1 -168
-9 -188 -51 -15 -33 -14 -59 4 -93 20 -39 52 -47 183 -46 110 0 112 0 112 -22
0 -13 -6 -23 -12 -24 -93 -4 -131 -25 -143 -79 -15 -70 34 -113 133 -115 47
-1 67 -5 70 -16 14 -41 96 -187 132 -234 37 -48 107 -118 172 -171 29 -24 144
-92 198 -117 63 -28 203 -65 280 -72 101 -10 103 -10 200 -2 330 29 622 225
761 510 21 43 40 84 42 90 2 7 28 12 63 13 83 2 80 1 109 29 27 28 34 80 15
116 -15 27 -61 48 -101 46 -30 -2 -34 1 -34 23 l0 25 116 0 c93 0 121 4 142
18 53 35 51 123 -4 156 -22 14 -51 17 -148 16 l-121 -1 -11 40 c-29 114 -72
210 -133 300 -41 59 -172 196 -188 196 -19 0 -4 22 63 91 97 102 156 187 192
277 27 68 31 89 31 177 0 112 -12 149 -66 211 -56 64 -156 91 -249 67z m-497
-1437 c91 -33 200 -168 184 -230 -7 -29 -55 -68 -106 -86 -52 -18 -196 -21
-263 -5 -73 17 -132 55 -141 90 -14 54 87 189 168 226 48 22 106 24 158 5z"/>
</g>
</svg>
